# Blender v2.80 (sub 60) OBJ File: 'industrial_set.blend'
# www.blender.org
g main
v 1.937619 1.830981 0.166667
v 1.298362 1.648684 0.166667
v 0.728151 1.261848 0.166667
v 0.341316 0.693324 0.166667
v 0.159019 0.062500 0.166667
v 1.937619 2.154902 0.166667
v 1.177548 1.940355 0.166667
v 0.504916 1.485083 0.166667
v 0.049644 0.814138 0.166667
v -0.164902 0.062500 0.166667
v 1.298362 1.648684 -0.166667
v 1.937619 1.830981 -0.166667
v 0.728151 1.261848 -0.166667
v 0.341316 0.693324 -0.166667
v 0.159019 0.062500 -0.166667
v 1.937619 2.154902 -0.166667
v 1.177547 1.940355 -0.166667
v 0.504916 1.485083 -0.166667
v 0.049645 0.814138 -0.166667
v -0.164902 0.062500 -0.166667
v 1.614596 1.755928 0.166667
v 0.997544 1.483680 0.166667
v 0.506318 0.992666 0.166667
v 0.234072 0.380673 0.166667
v 1.553010 2.066572 0.166667
v 0.822161 1.746161 0.166667
v 0.243838 1.168049 0.166667
v -0.076572 0.442260 0.166667
v 0.616533 1.373466 0.229167
v 0.195480 0.753731 0.229167
v -0.002942 0.062500 0.229167
v 1.937619 1.992941 0.229167
v 1.237955 1.794519 0.229167
v 1.614597 1.755928 -0.166667
v 0.997544 1.483681 -0.166667
v 0.506319 0.992666 -0.166667
v 0.234072 0.380673 -0.166667
v 1.553010 2.066572 -0.166667
v 0.822161 1.746161 -0.166667
v 0.243839 1.168049 -0.166667
v -0.076572 0.442260 -0.166667
v 0.616533 1.373465 -0.229167
v 0.195480 0.753731 -0.229167
v -0.002942 0.062500 -0.229167
v 1.937619 1.992941 -0.229167
v 1.237956 1.794519 -0.229167
v 0.396004 0.670671 -0.000000
v 0.770008 1.219991 -0.000000
v 0.463059 1.526940 -0.000000
v -0.005044 0.836791 -0.000000
v 0.219754 0.062500 -0.000000
v -0.225638 0.062500 -0.000000
v 1.321015 1.593995 -0.000000
v 1.937619 1.770245 0.000000
v 1.937619 2.215637 0.000000
v 1.154896 1.995043 -0.000000
v 0.375079 1.080358 0.229167
v 0.078749 0.411466 0.229167
v 1.583805 1.911250 0.229167
v 0.909853 1.614921 0.229167
v 0.375079 1.080358 -0.229167
v 0.078749 0.411466 -0.229167
v 1.583804 1.911250 -0.229167
v 0.909853 1.614921 -0.229167
v 0.555534 0.959782 -0.000000
v 0.194624 1.200934 -0.000000
v 0.292317 0.369126 -0.000000
v 1.626145 1.697682 -0.000000
v -0.134818 0.453807 -0.000000
v 1.541463 2.124817 -0.000000
v 1.030429 1.434466 -0.000000
v 0.789276 1.795376 -0.000000
v 1.937500 2.236100 0.237662
v 1.937500 2.236100 -0.237662
v 1.937500 1.760776 -0.237662
v 2.000000 2.236128 0.237691
v 2.000000 1.760747 -0.237691
v 1.937500 1.760776 0.237662
v 2.000000 1.760747 0.237691
v 2.000000 2.236128 -0.237691
v 1.937500 2.325222 0.000000
v 1.937500 1.998438 -0.326785
v 2.000000 1.998438 0.326785
v 2.000000 1.671653 0.000000
v 2.000000 1.998438 -0.326785
v 1.937500 1.998438 0.326785
v 1.937500 1.671653 0.000000
v 2.000000 2.325222 0.000000
v 0.237885 0.062501 0.237661
v 0.237884 0.062501 -0.237662
v -0.237440 0.062501 -0.237662
v 0.237913 0.000001 0.237690
v -0.237469 0.000001 -0.237691
v -0.237440 0.062501 0.237661
v -0.237469 0.000001 0.237690
v 0.237913 0.000001 -0.237691
v 0.327007 0.062501 -0.000000
v 0.000222 0.062501 -0.326785
v 0.000222 0.000001 0.326785
v -0.326563 0.000000 -0.000000
v 0.000222 0.000001 -0.326785
v 0.000222 0.062501 0.326785
v -0.326563 0.062501 -0.000000
v 0.327007 0.000001 -0.000000
v 1.937500 2.313793 -0.021299
v 1.937500 2.271194 -0.021299
v 1.937500 2.271194 0.021299
v 1.937500 2.313793 0.021300
v 1.910111 2.313793 0.021300
v 1.910111 2.271194 0.021299
v 1.910111 2.271194 -0.021299
v 1.910111 2.313793 -0.021299
v 1.937500 2.023793 0.268701
v 1.937500 1.981194 0.268701
v 1.937500 1.981194 0.311299
v 1.937500 2.023793 0.311300
v 1.910111 2.023793 0.311300
v 1.910111 1.981194 0.311299
v 1.910111 1.981194 0.268701
v 1.910111 2.023793 0.268701
v 1.937500 1.978698 -0.313796
v 1.937500 1.978698 -0.271197
v 1.937500 2.021297 -0.271197
v 1.937500 2.021297 -0.313796
v 1.910111 2.021297 -0.313796
v 1.910111 2.021297 -0.271197
v 1.910111 1.978698 -0.271197
v 1.910111 1.978698 -0.313796
v 1.937500 1.686201 0.021299
v 1.937500 1.728800 0.021300
v 1.937500 1.728800 -0.021299
v 1.937500 1.686201 -0.021299
v 1.910111 1.686201 -0.021299
v 1.910111 1.728800 -0.021299
v 1.910111 1.728800 0.021300
v 1.910111 1.686201 0.021299
v 1.937500 2.236946 0.206827
v 1.937500 2.206824 0.176705
v 1.937500 2.176702 0.206826
v 1.937500 2.206824 0.236949
v 1.910111 2.206824 0.236949
v 1.910111 2.176702 0.206826
v 1.910111 2.206824 0.176705
v 1.910111 2.236946 0.206827
v 1.937500 1.826824 0.206827
v 1.937500 1.796702 0.176704
v 1.937500 1.766580 0.206826
v 1.937500 1.796702 0.236948
v 1.910111 1.796702 0.236948
v 1.910111 1.766580 0.206826
v 1.910111 1.796702 0.176704
v 1.910111 1.826824 0.206827
v 1.937500 2.206825 -0.236948
v 1.937500 2.176702 -0.206826
v 1.937500 2.206824 -0.176704
v 1.937500 2.236946 -0.206826
v 1.910111 2.236946 -0.206826
v 1.910111 2.206824 -0.176704
v 1.910111 2.176702 -0.206826
v 1.910111 2.206825 -0.236948
v 1.937500 1.763049 -0.206827
v 1.937500 1.793171 -0.176705
v 1.937500 1.823293 -0.206826
v 1.937500 1.793171 -0.236949
v 1.910111 1.793171 -0.236949
v 1.910111 1.823293 -0.206826
v 1.910111 1.793171 -0.176705
v 1.910111 1.763049 -0.206827
v 0.313792 0.062500 -0.021300
v 0.271194 0.062500 -0.021300
v 0.271194 0.062500 0.021299
v 0.313792 0.062500 0.021299
v 0.313792 0.089889 0.021299
v 0.271194 0.089889 0.021299
v 0.271194 0.089889 -0.021300
v 0.313792 0.089889 -0.021300
v 0.023791 0.062500 0.268700
v -0.018807 0.062500 0.268700
v -0.018807 0.062500 0.311299
v 0.023791 0.062500 0.311299
v 0.023791 0.089889 0.311299
v -0.018807 0.089889 0.311299
v -0.018807 0.089889 0.268700
v 0.023791 0.089889 0.268700
v -0.021302 0.062500 -0.313797
v -0.021303 0.062500 -0.271198
v 0.021297 0.062500 -0.271197
v 0.021297 0.062500 -0.313796
v 0.021297 0.089889 -0.313796
v 0.021297 0.089889 -0.271197
v -0.021303 0.089889 -0.271198
v -0.021302 0.089889 -0.313797
v -0.313800 0.062499 0.021299
v -0.271201 0.062499 0.021299
v -0.271201 0.062499 -0.021300
v -0.313800 0.062499 -0.021300
v -0.313800 0.089888 -0.021300
v -0.271201 0.089888 -0.021300
v -0.271201 0.089888 0.021299
v -0.313800 0.089888 0.021299
v 0.236945 0.062500 0.206826
v 0.206823 0.062500 0.176704
v 0.176701 0.062500 0.206826
v 0.206823 0.062500 0.236948
v 0.206823 0.089889 0.236948
v 0.176701 0.089889 0.206826
v 0.206823 0.089889 0.176704
v 0.236945 0.089889 0.206826
v -0.173177 0.062500 0.206826
v -0.203299 0.062500 0.176704
v -0.233421 0.062500 0.206826
v -0.203299 0.062500 0.236948
v -0.203299 0.089889 0.236948
v -0.233421 0.089889 0.206826
v -0.203299 0.089889 0.176704
v -0.173177 0.089889 0.206826
v 0.206823 0.062500 -0.236949
v 0.176701 0.062500 -0.206827
v 0.206823 0.062500 -0.176705
v 0.236945 0.062500 -0.206827
v 0.236945 0.089889 -0.206827
v 0.206823 0.089889 -0.176705
v 0.176701 0.089889 -0.206827
v 0.206823 0.089889 -0.236949
v -0.236952 0.062499 -0.206827
v -0.206830 0.062499 -0.176705
v -0.176708 0.062499 -0.206827
v -0.206830 0.062499 -0.236949
v -0.206830 0.089888 -0.236949
v -0.176708 0.089888 -0.206827
v -0.206830 0.089888 -0.176705
v -0.236952 0.089888 -0.206827
vt 0.181641 0.619141
vt 0.150391 0.673828
vt 0.091797 0.685547
vt 0.037109 0.654297
vt 0.025391 0.595703
vt 0.056641 0.541016
vt 0.115234 0.529297
vt 0.169922 0.560547
vt 0.318359 0.568359
vt 0.376953 0.599609
vt 0.384766 0.658203
vt 0.353516 0.716797
vt 0.294922 0.724609
vt 0.236328 0.693359
vt 0.228516 0.634766
vt 0.259766 0.576172
vt 0.181641 0.619141
vt 0.150391 0.673828
vt 0.091797 0.685547
vt 0.037109 0.654297
vt 0.025391 0.595703
vt 0.056641 0.541016
vt 0.115234 0.529297
vt 0.169922 0.560547
vt 0.318359 0.568359
vt 0.376953 0.599609
vt 0.384766 0.658203
vt 0.353516 0.716797
vt 0.294922 0.724609
vt 0.236328 0.693359
vt 0.228516 0.634766
vt 0.259766 0.576172
vt 0.597412 0.597900
vt 0.602295 0.593506
vt 0.619385 0.601318
vt 0.619385 0.607666
vt 0.594482 0.593994
vt 0.605225 0.571533
vt 0.610107 0.576416
vt 0.623291 0.605713
vt 0.627197 0.584229
vt 0.636475 0.583252
vt 0.609131 0.570068
vt 0.632568 0.578857
vt 0.597412 0.597900
vt 0.602295 0.593506
vt 0.619385 0.601318
vt 0.619385 0.607666
vt 0.594482 0.593994
vt 0.605225 0.571533
vt 0.610107 0.576416
vt 0.623291 0.605713
vt 0.627197 0.584229
vt 0.636475 0.583252
vt 0.609131 0.570068
vt 0.632568 0.578857
vt 0.597412 0.597900
vt 0.602295 0.593506
vt 0.619385 0.601318
vt 0.619385 0.607666
vt 0.594482 0.593994
vt 0.605225 0.571533
vt 0.610107 0.576416
vt 0.623291 0.605713
vt 0.627197 0.584229
vt 0.636475 0.583252
vt 0.609131 0.570068
vt 0.632568 0.578857
vt 0.597412 0.597900
vt 0.602295 0.593506
vt 0.619385 0.601318
vt 0.619385 0.607666
vt 0.594482 0.593994
vt 0.605225 0.571533
vt 0.610107 0.576416
vt 0.623291 0.605713
vt 0.627197 0.584229
vt 0.636475 0.583252
vt 0.609131 0.570068
vt 0.632568 0.578857
vt 0.597412 0.597900
vt 0.602295 0.593506
vt 0.619385 0.601318
vt 0.619385 0.607666
vt 0.594482 0.593994
vt 0.605225 0.571533
vt 0.610107 0.576416
vt 0.623291 0.605713
vt 0.627197 0.584229
vt 0.636475 0.583252
vt 0.609131 0.570068
vt 0.632568 0.578857
vt 0.597412 0.597900
vt 0.602295 0.593506
vt 0.619385 0.601318
vt 0.619385 0.607666
vt 0.594482 0.593994
vt 0.605225 0.571533
vt 0.610107 0.576416
vt 0.623291 0.605713
vt 0.627197 0.584229
vt 0.636475 0.583252
vt 0.609131 0.570068
vt 0.632568 0.578857
vt 0.597412 0.597900
vt 0.602295 0.593506
vt 0.619385 0.601318
vt 0.619385 0.607666
vt 0.594482 0.593994
vt 0.605225 0.571533
vt 0.610107 0.576416
vt 0.623291 0.605713
vt 0.627197 0.584229
vt 0.636475 0.583252
vt 0.609131 0.570068
vt 0.632568 0.578857
vt 0.597412 0.597900
vt 0.602295 0.593506
vt 0.619385 0.601318
vt 0.619385 0.607666
vt 0.594482 0.593994
vt 0.605225 0.571533
vt 0.610107 0.576416
vt 0.623291 0.605713
vt 0.627197 0.584229
vt 0.636475 0.583252
vt 0.609131 0.570068
vt 0.632568 0.578857
vt 0.597412 0.597900
vt 0.602295 0.593506
vt 0.619385 0.601318
vt 0.619385 0.607666
vt 0.594482 0.593994
vt 0.605225 0.571533
vt 0.610107 0.576416
vt 0.623291 0.605713
vt 0.627197 0.584229
vt 0.636475 0.583252
vt 0.609131 0.570068
vt 0.632568 0.578857
vt 0.597412 0.597900
vt 0.602295 0.593506
vt 0.619385 0.601318
vt 0.619385 0.607666
vt 0.594482 0.593994
vt 0.605225 0.571533
vt 0.610107 0.576416
vt 0.623291 0.605713
vt 0.627197 0.584229
vt 0.636475 0.583252
vt 0.609131 0.570068
vt 0.632568 0.578857
vt 0.597412 0.597900
vt 0.602295 0.593506
vt 0.619385 0.601318
vt 0.619385 0.607666
vt 0.594482 0.593994
vt 0.605225 0.571533
vt 0.610107 0.576416
vt 0.623291 0.605713
vt 0.627197 0.584229
vt 0.636475 0.583252
vt 0.609131 0.570068
vt 0.632568 0.578857
vt 0.597412 0.597900
vt 0.602295 0.593506
vt 0.619385 0.601318
vt 0.619385 0.607666
vt 0.594482 0.593994
vt 0.605225 0.571533
vt 0.610107 0.576416
vt 0.623291 0.605713
vt 0.627197 0.584229
vt 0.636475 0.583252
vt 0.609131 0.570068
vt 0.632568 0.578857
vt 0.597412 0.597900
vt 0.602295 0.593506
vt 0.619385 0.601318
vt 0.619385 0.607666
vt 0.594482 0.593994
vt 0.605225 0.571533
vt 0.610107 0.576416
vt 0.623291 0.605713
vt 0.627197 0.584229
vt 0.636475 0.583252
vt 0.609131 0.570068
vt 0.632568 0.578857
vt 0.597412 0.597900
vt 0.602295 0.593506
vt 0.619385 0.601318
vt 0.619385 0.607666
vt 0.594482 0.593994
vt 0.605225 0.571533
vt 0.610107 0.576416
vt 0.623291 0.605713
vt 0.627197 0.584229
vt 0.636475 0.583252
vt 0.609131 0.570068
vt 0.632568 0.578857
vt 0.597412 0.597900
vt 0.602295 0.593506
vt 0.619385 0.601318
vt 0.619385 0.607666
vt 0.594482 0.593994
vt 0.605225 0.571533
vt 0.610107 0.576416
vt 0.623291 0.605713
vt 0.627197 0.584229
vt 0.636475 0.583252
vt 0.609131 0.570068
vt 0.632568 0.578857
vt 0.597412 0.597900
vt 0.602295 0.593506
vt 0.619385 0.601318
vt 0.619385 0.607666
vt 0.594482 0.593994
vt 0.605225 0.571533
vt 0.610107 0.576416
vt 0.623291 0.605713
vt 0.627197 0.584229
vt 0.636475 0.583252
vt 0.609131 0.570068
vt 0.632568 0.578857
vt 0.474609 0.123047
vt 0.468750 0.060547
vt 0.568359 0.059570
vt 0.570312 0.123047
vt 0.464111 0.006592
vt 0.567627 0.004639
vt 0.671631 0.005615
vt 0.667969 0.058594
vt 0.666016 0.123047
vt 0.756836 0.068359
vt 0.744141 0.128906
vt 0.770752 0.016357
vt 0.860107 0.028076
vt 0.843018 0.077881
vt 0.822266 0.134766
vt 0.130859 0.154297
vt 0.107422 0.105469
vt 0.193359 0.088867
vt 0.208984 0.142578
vt 0.085205 0.065186
vt 0.178955 0.043701
vt 0.272705 0.022217
vt 0.279297 0.072266
vt 0.287109 0.130859
vt 0.374023 0.066406
vt 0.380859 0.126953
vt 0.368408 0.014404
vt 0.470703 0.263672
vt 0.566406 0.261719
vt 0.567383 0.325195
vt 0.470703 0.326172
vt 0.662109 0.259766
vt 0.664062 0.324219
vt 0.666016 0.388672
vt 0.568359 0.388672
vt 0.470703 0.388672
vt 0.742188 0.255859
vt 0.752930 0.318359
vt 0.822266 0.251953
vt 0.834229 0.312744
vt 0.848389 0.374756
vt 0.763672 0.380859
vt 0.138672 0.259766
vt 0.212891 0.263672
vt 0.202148 0.319336
vt 0.119141 0.314453
vt 0.287109 0.267578
vt 0.285156 0.324219
vt 0.283203 0.380859
vt 0.191406 0.375000
vt 0.102783 0.369385
vt 0.378906 0.265625
vt 0.377930 0.325195
vt 0.376953 0.384766
vt 0.568359 0.192383
vt 0.472656 0.193359
vt 0.664062 0.191406
vt 0.669922 0.501953
vt 0.570312 0.501953
vt 0.569336 0.445312
vt 0.667969 0.445312
vt 0.470703 0.501953
vt 0.470703 0.445312
vt 0.743164 0.192383
vt 0.815674 0.193604
vt 0.210938 0.203125
vt 0.134766 0.207031
vt 0.287109 0.199219
vt 0.861084 0.492432
vt 0.769531 0.496094
vt 0.766602 0.438477
vt 0.857178 0.433838
vt 0.279297 0.494141
vt 0.185547 0.488281
vt 0.188477 0.431641
vt 0.281250 0.437500
vt 0.091797 0.482422
vt 0.095703 0.425781
vt 0.379883 0.196289
vt 0.375000 0.498047
vt 0.375977 0.441406
vt 0.322266 0.552734
vt 0.384766 0.583984
vt 0.255859 0.560547
vt 0.291016 0.740234
vt 0.228516 0.708984
vt 0.220703 0.697266
vt 0.212891 0.630859
vt 0.244141 0.564453
vt 0.357422 0.732422
vt 0.392578 0.595703
vt 0.400391 0.662109
vt 0.369141 0.724609
vt 0.322266 0.552734
vt 0.384766 0.583984
vt 0.255859 0.560547
vt 0.291016 0.740234
vt 0.228516 0.708984
vt 0.220703 0.697266
vt 0.212891 0.630859
vt 0.244141 0.564453
vt 0.357422 0.732422
vt 0.392578 0.595703
vt 0.400391 0.662109
vt 0.369141 0.724609
vn -1.0000 -0.0000 0.0000
vn 1.0000 -0.0000 0.0000
vn -0.0000 1.0000 0.0000
vn 0.0000 -1.0000 0.0000
vn 0.0000 0.0000 -1.0000
vn 0.0000 -0.0000 1.0000
vn 0.0000 0.7071 -0.7071
vn 0.0000 -0.7071 -0.7071
vn 0.0000 0.7071 0.7071
vn 0.0000 -0.7071 0.7071
vn 0.7071 0.0000 -0.7071
vn -0.7071 0.0000 -0.7071
vn 0.7071 0.0000 0.7071
vn -0.7071 0.0000 0.7071
vn 0.4998 -0.5000 0.7072
vn -0.0160 0.0160 0.9997
vn -0.0180 0.0123 0.9998
vn 0.5854 -0.3975 0.7066
vn -0.5171 0.5173 0.6818
vn -0.6054 0.4100 0.6821
vn -0.6686 0.2942 0.6829
vn -0.0186 0.0084 0.9998
vn 0.6477 -0.2870 0.7058
vn -0.0110 0.0038 0.9999
vn 0.6853 -0.1979 0.7008
vn -0.6980 0.1991 0.6879
vn -0.7297 0.1697 0.6623
vn -0.0525 0.0120 0.9985
vn 0.6721 -0.1585 0.7232
vn 0.1563 -0.6729 0.7230
vn -0.0117 0.0518 0.9986
vn -0.0038 0.0109 0.9999
vn 0.1955 -0.6860 0.7008
vn -0.1676 0.7297 0.6629
vn -0.1971 0.6985 0.6879
vn -0.2926 0.6693 0.6829
vn -0.0084 0.0187 0.9998
vn 0.2852 -0.6483 0.7059
vn -0.0124 0.0182 0.9998
vn 0.3967 -0.5857 0.7067
vn -0.4095 0.6059 0.6821
vn 0.4998 -0.5000 -0.7072
vn 0.5854 -0.3975 -0.7066
vn -0.0180 0.0123 -0.9998
vn -0.0160 0.0160 -0.9997
vn 0.6477 -0.2870 -0.7058
vn -0.0186 0.0084 -0.9998
vn -0.6686 0.2942 -0.6829
vn -0.6054 0.4100 -0.6821
vn -0.5171 0.5173 -0.6818
vn 0.6853 -0.1979 -0.7008
vn -0.0110 0.0038 -0.9999
vn 0.6721 -0.1585 -0.7232
vn -0.0525 0.0120 -0.9985
vn -0.7297 0.1697 -0.6623
vn -0.6980 0.1991 -0.6879
vn 0.1563 -0.6729 -0.7230
vn 0.1955 -0.6860 -0.7008
vn -0.0038 0.0109 -0.9999
vn -0.0117 0.0518 -0.9986
vn 0.2852 -0.6483 -0.7059
vn -0.0084 0.0187 -0.9998
vn -0.2926 0.6693 -0.6829
vn -0.1971 0.6985 -0.6879
vn -0.1676 0.7297 -0.6629
vn 0.3967 -0.5857 -0.7067
vn -0.0123 0.0182 -0.9998
vn -0.4095 0.6059 -0.6821
vn 0.8271 -0.5620 0.0000
vn 0.7070 -0.7072 0.0000
vn 0.9139 -0.4058 0.0000
vn -0.8280 0.5606 0.0000
vn -0.9155 0.4022 0.0000
vn -0.7070 0.7072 0.0000
vn 0.9604 -0.2786 0.0000
vn 0.9732 -0.2299 0.0000
vn 0.2752 -0.9614 0.0000
vn 0.2266 -0.9740 0.0000
vn 0.4031 -0.9151 0.0000
vn -0.9619 0.2732 0.0000
vn -0.9740 0.2263 0.0000
vn -0.2706 0.9627 0.0000
vn -0.4001 0.9164 0.0000
vn -0.2236 0.9747 0.0000
vn 0.5609 -0.8278 0.0000
vn -0.5598 0.8286 0.0000
vn -0.6361 -0.7716 0.0000
vn -0.6248 -0.5520 -0.5520
vn 0.6246 -0.5522 -0.5522
vn 0.6358 -0.7718 0.0000
vn 0.6246 -0.5522 0.5522
vn -0.6248 -0.5520 0.5520
vn -0.6361 0.7716 0.0000
vn -0.6248 0.5520 0.5520
vn 0.6246 0.5522 0.5522
vn 0.6358 0.7718 0.0000
vn -0.6361 0.0000 0.7716
vn 0.6358 0.0000 0.7718
vn 0.6246 0.5522 -0.5522
vn -0.6248 0.5520 -0.5520
vn 0.6358 0.0000 -0.7718
vn -0.6361 0.0000 -0.7716
vn -0.7716 0.6361 0.0000
vn -0.5520 0.6248 -0.5520
vn -0.5522 -0.6246 -0.5522
vn -0.7718 -0.6358 0.0000
vn -0.5522 -0.6246 0.5522
vn -0.5520 0.6248 0.5520
vn 0.7716 0.6361 0.0000
vn 0.5520 0.6248 0.5520
vn 0.5522 -0.6246 0.5522
vn 0.7718 -0.6358 0.0000
vn 0.0000 0.6361 0.7716
vn 0.0000 -0.6358 0.7718
vn 0.5522 -0.6246 -0.5522
vn 0.5520 0.6248 -0.5520
vn 0.0000 -0.6358 -0.7718
vn 0.0000 0.6361 -0.7716
s off
f 86/1/1 73/2/1 81/3/1 74/4/1 82/5/1 75/6/1 87/7/1 78/8/1
f 84/9/2 77/10/2 85/11/2 80/12/2 88/13/2 76/14/2 83/15/2 79/16/2
f 102/17/3 89/18/3 97/19/3 90/20/3 98/21/3 91/22/3 103/23/3 94/24/3
f 100/25/4 93/26/4 101/27/4 96/28/4 104/29/4 92/30/4 99/31/4 95/32/4
f 106/33/5 111/34/5 112/35/5 105/36/5
f 106/37/4 107/38/4 110/39/4 111/34/4
f 105/40/3 112/35/3 109/41/3 108/42/3
f 109/41/1 112/35/1 111/34/1 110/39/1
f 107/43/6 108/44/6 109/41/6 110/39/6
f 114/45/5 119/46/5 120/47/5 113/48/5
f 114/49/4 115/50/4 118/51/4 119/46/4
f 113/52/3 120/47/3 117/53/3 116/54/3
f 117/53/1 120/47/1 119/46/1 118/51/1
f 115/55/6 116/56/6 117/53/6 118/51/6
f 122/57/4 127/58/4 128/59/4 121/60/4
f 122/61/6 123/62/6 126/63/6 127/58/6
f 121/64/5 128/59/5 125/65/5 124/66/5
f 125/65/1 128/59/1 127/58/1 126/63/1
f 123/67/3 124/68/3 125/65/3 126/63/3
f 130/69/6 135/70/6 136/71/6 129/72/6
f 130/73/3 131/74/3 134/75/3 135/70/3
f 129/76/4 136/71/4 133/77/4 132/78/4
f 133/77/1 136/71/1 135/70/1 134/75/1
f 131/79/5 132/80/5 133/77/5 134/75/5
f 138/81/7 143/82/7 144/83/7 137/84/7
f 138/85/8 139/86/8 142/87/8 143/82/8
f 137/88/9 144/83/9 141/89/9 140/90/9
f 141/89/1 144/83/1 143/82/1 142/87/1
f 139/91/10 140/92/10 141/89/10 142/87/10
f 146/93/7 151/94/7 152/95/7 145/96/7
f 146/97/8 147/98/8 150/99/8 151/94/8
f 145/100/9 152/95/9 149/101/9 148/102/9
f 149/101/1 152/95/1 151/94/1 150/99/1
f 147/103/10 148/104/10 149/101/10 150/99/10
f 154/105/8 159/106/8 160/107/8 153/108/8
f 154/109/10 155/110/10 158/111/10 159/106/10
f 153/112/7 160/107/7 157/113/7 156/114/7
f 157/113/1 160/107/1 159/106/1 158/111/1
f 155/115/9 156/116/9 157/113/9 158/111/9
f 162/117/10 167/118/10 168/119/10 161/120/10
f 162/121/9 163/122/9 166/123/9 167/118/9
f 161/124/8 168/119/8 165/125/8 164/126/8
f 165/125/1 168/119/1 167/118/1 166/123/1
f 163/127/7 164/128/7 165/125/7 166/123/7
f 170/129/5 175/130/5 176/131/5 169/132/5
f 170/133/1 171/134/1 174/135/1 175/130/1
f 169/136/2 176/131/2 173/137/2 172/138/2
f 173/137/3 176/131/3 175/130/3 174/135/3
f 171/139/6 172/140/6 173/137/6 174/135/6
f 178/141/5 183/142/5 184/143/5 177/144/5
f 178/145/1 179/146/1 182/147/1 183/142/1
f 177/148/2 184/143/2 181/149/2 180/150/2
f 181/149/3 184/143/3 183/142/3 182/147/3
f 179/151/6 180/152/6 181/149/6 182/147/6
f 186/153/1 191/154/1 192/155/1 185/156/1
f 186/157/6 187/158/6 190/159/6 191/154/6
f 185/160/5 192/155/5 189/161/5 188/162/5
f 189/161/3 192/155/3 191/154/3 190/159/3
f 187/163/2 188/164/2 189/161/2 190/159/2
f 194/165/6 199/166/6 200/167/6 193/168/6
f 194/169/2 195/170/2 198/171/2 199/166/2
f 193/172/1 200/167/1 197/173/1 196/174/1
f 197/173/3 200/167/3 199/166/3 198/171/3
f 195/175/5 196/176/5 197/173/5 198/171/5
f 202/177/11 207/178/11 208/179/11 201/180/11
f 202/181/12 203/182/12 206/183/12 207/178/12
f 201/184/13 208/179/13 205/185/13 204/186/13
f 205/185/3 208/179/3 207/178/3 206/183/3
f 203/187/14 204/188/14 205/185/14 206/183/14
f 210/189/11 215/190/11 216/191/11 209/192/11
f 210/193/12 211/194/12 214/195/12 215/190/12
f 209/196/13 216/191/13 213/197/13 212/198/13
f 213/197/3 216/191/3 215/190/3 214/195/3
f 211/199/14 212/200/14 213/197/14 214/195/14
f 218/201/12 223/202/12 224/203/12 217/204/12
f 218/205/14 219/206/14 222/207/14 223/202/14
f 217/208/11 224/203/11 221/209/11 220/210/11
f 221/209/3 224/203/3 223/202/3 222/207/3
f 219/211/13 220/212/13 221/209/13 222/207/13
f 226/213/14 231/214/14 232/215/14 225/216/14
f 226/217/13 227/218/13 230/219/13 231/214/13
f 225/220/12 232/215/12 229/221/12 228/222/12
f 229/221/3 232/215/3 231/214/3 230/219/3
f 227/223/11 228/224/11 229/221/11 230/219/11
s 1
f 3/225/15 29/226/16 57/227/17 23/228/18
f 29/226/16 8/229/19 27/230/20 57/227/17
f 57/227/17 27/230/20 9/231/21 30/232/22
f 23/228/18 57/227/17 30/232/22 4/233/23
f 4/233/23 30/232/22 58/234/24 24/235/25
f 30/232/22 9/231/21 28/236/26 58/234/24
f 58/234/24 28/236/26 10/237/27 31/238/28
f 24/235/25 58/234/24 31/238/28 5/239/29
f 1/240/30 32/241/31 59/242/32 21/243/33
f 32/241/31 6/244/34 25/245/35 59/242/32
f 59/242/32 25/245/35 7/246/36 33/247/37
f 21/243/33 59/242/32 33/247/37 2/248/38
f 2/248/38 33/247/37 60/249/39 22/250/40
f 33/247/37 7/246/36 26/251/41 60/249/39
f 60/249/39 26/251/41 8/229/19 29/226/16
f 22/250/40 60/249/39 29/226/16 3/225/15
f 13/252/42 36/253/43 61/254/44 42/255/45
f 36/253/43 14/256/46 43/257/47 61/254/44
f 61/254/44 43/257/47 19/258/48 40/259/49
f 42/255/45 61/254/44 40/259/49 18/260/50
f 14/256/46 37/261/51 62/262/52 43/257/47
f 37/261/51 15/263/53 44/264/54 62/262/52
f 62/262/52 44/264/54 20/265/55 41/266/56
f 43/257/47 62/262/52 41/266/56 19/258/48
f 12/267/57 34/268/58 63/269/59 45/270/60
f 34/268/58 11/271/61 46/272/62 63/269/59
f 63/269/59 46/272/62 17/273/63 38/274/64
f 45/270/60 63/269/59 38/274/64 16/275/65
f 11/271/61 35/276/66 64/277/67 46/272/62
f 35/276/66 13/252/42 42/255/45 64/277/67
f 64/277/67 42/255/45 18/260/50 39/278/68
f 46/272/62 64/277/67 39/278/68 17/273/63
f 3/225/15 23/228/18 65/279/69 48/280/70
f 23/228/18 4/233/23 47/281/71 65/279/69
f 65/279/69 47/281/71 14/256/46 36/253/43
f 48/280/70 65/279/69 36/253/43 13/252/42
f 9/282/21 27/283/20 66/284/72 50/285/73
f 27/283/20 8/286/19 49/287/74 66/284/72
f 66/284/72 49/287/74 18/260/50 40/259/49
f 50/285/73 66/284/72 40/259/49 19/258/48
f 4/233/23 24/235/25 67/288/75 47/281/71
f 24/235/25 5/239/29 51/289/76 67/288/75
f 67/288/75 51/289/76 15/263/53 37/261/51
f 47/281/71 67/288/75 37/261/51 14/256/46
f 1/240/30 21/243/33 68/290/77 54/291/78
f 21/243/33 2/248/38 53/292/79 68/290/77
f 68/290/77 53/292/79 11/271/61 34/268/58
f 54/291/78 68/290/77 34/268/58 12/267/57
f 10/293/27 28/294/26 69/295/80 52/296/81
f 28/294/26 9/282/21 50/285/73 69/295/80
f 69/295/80 50/285/73 19/258/48 41/266/56
f 52/296/81 69/295/80 41/266/56 20/265/55
f 7/297/36 25/298/35 70/299/82 56/300/83
f 25/298/35 6/301/34 55/302/84 70/299/82
f 70/299/82 55/302/84 16/275/65 38/274/64
f 56/300/83 70/299/82 38/274/64 17/273/63
f 2/248/38 22/250/40 71/303/85 53/292/79
f 22/250/40 3/225/15 48/280/70 71/303/85
f 71/303/85 48/280/70 13/252/42 35/276/66
f 53/292/79 71/303/85 35/276/66 11/271/61
f 8/286/19 26/304/41 72/305/86 49/287/74
f 26/304/41 7/297/36 56/300/83 72/305/86
f 72/305/86 56/300/83 17/273/63 39/278/68
f 49/287/74 72/305/86 39/278/68 18/260/50
f 87/306/87 75/307/88 77/10/89 84/9/90
f 84/9/90 79/16/91 78/308/92 87/306/87
f 81/309/93 73/310/94 76/14/95 88/13/96
f 76/14/95 73/311/94 86/312/97 83/15/98
f 86/312/97 78/313/92 79/16/91 83/15/98
f 80/12/99 74/314/100 81/309/93 88/13/96
f 85/11/101 77/10/89 75/315/88 82/316/102
f 82/316/102 74/317/100 80/12/99 85/11/101
f 103/318/103 91/319/104 93/26/105 100/25/106
f 100/25/106 95/32/107 94/320/108 103/318/103
f 97/321/109 89/322/110 92/30/111 104/29/112
f 92/30/111 89/323/110 102/324/113 99/31/114
f 102/324/113 94/325/108 95/32/107 99/31/114
f 96/28/115 90/326/116 97/321/109 104/29/112
f 101/27/117 93/26/105 91/327/104 98/328/118
f 98/328/118 90/329/116 96/28/115 101/27/117
