# Blender v2.80 (sub 74) OBJ File: 'parametric.blend'
# www.blender.org
g coll.006_Cube.007
v 0.333334 -2.000000 -0.333333
v -0.333333 -2.000000 -0.333333
v 0.333334 -2.000000 0.333333
v -0.333333 -2.000000 0.333333
v 0.333333 2.000000 -0.333333
v -0.333334 2.000000 -0.333333
v 0.333333 2.000000 0.333333
v -0.333334 2.000000 0.333333
v -0.458334 2.000000 0.000000
v 0.000000 -2.000000 -0.458333
v -0.000000 2.000000 0.458333
v 0.000000 -2.000000 0.458333
v -0.000000 2.000000 -0.458333
v 0.458334 -2.000000 -0.000000
v 0.458333 2.000000 -0.000000
v -0.458333 -2.000000 0.000000
vt 0.814150 0.209519
vt 0.842565 0.204084
vt 0.867547 0.218673
vt 0.872982 0.247088
vt 0.858393 0.272070
vt 0.829978 0.277505
vt 0.804996 0.262916
vt 0.799561 0.234501
vt 0.814150 0.362199
vt 0.799561 0.337217
vt 0.804996 0.308802
vt 0.829978 0.294213
vt 0.858393 0.299648
vt 0.872982 0.324630
vt 0.867547 0.353045
vt 0.842565 0.367634
vt 0.717116 0.997814
vt 0.717116 0.672760
vt 0.746592 0.672761
vt 0.746592 0.997814
vt 0.599212 0.997814
vt 0.569736 0.997814
vt 0.569736 0.672760
vt 0.599212 0.672760
vt 0.776068 0.672761
vt 0.776068 0.997814
vt 0.687640 0.997814
vt 0.687640 0.672760
vt 0.628688 0.672760
vt 0.658164 0.672760
vt 0.658164 0.997814
vt 0.628688 0.997814
vt 0.540260 0.997814
vt 0.540260 0.672760
vn -0.0000 1.0000 0.0000
vn 0.0000 -1.0000 0.0000
vn -0.7071 -0.0000 0.7071
vn 0.0000 0.0000 1.0000
vn 0.7071 0.0000 -0.7071
vn 1.0000 0.0000 -0.0000
vn 0.7071 0.0000 0.7071
vn -1.0000 -0.0000 0.0000
vn -0.0000 0.0000 -1.0000
vn -0.7071 -0.0000 -0.7071
s off
f 6/1/1 9/2/1 8/3/1 11/4/1 7/5/1 15/6/1 5/7/1 13/8/1
f 1/9/2 14/10/2 3/11/2 12/12/2 4/13/2 16/14/2 2/15/2 10/16/2
s 1
f 8/17/3 4/18/3 12/19/4 11/20/4
f 5/21/5 15/22/6 14/23/6 1/24/5
f 12/19/4 3/25/7 7/26/7 11/20/4
f 4/18/3 8/17/3 9/27/8 16/28/8
f 10/29/9 2/30/10 6/31/10 13/32/9
f 2/30/10 16/28/8 9/27/8 6/31/10
f 13/32/9 5/21/5 1/24/5 10/29/9
f 7/33/7 3/34/7 14/23/6 15/22/6
