# Blender v2.80 (sub 60) OBJ File: 'industrial_set.blend'
# www.blender.org
g main
v 0.166667 0.440000 -0.166667
v -0.166663 0.439999 -0.166667
v 0.166667 -0.437500 -0.166667
v -0.166663 -0.437501 -0.166667
v 0.166667 0.440000 0.166667
v -0.166663 0.439999 0.166667
v 0.166667 -0.437500 0.166667
v -0.166663 -0.437501 0.166667
v 0.000002 0.439999 -0.229167
v 0.000002 -0.437501 -0.229167
v 0.000002 0.439999 0.229167
v 0.000002 -0.437501 0.229167
v -0.229162 0.439999 -0.000000
v 0.229167 0.440000 -0.000000
v 0.229167 -0.437500 -0.000000
v -0.229162 -0.437501 -0.000000
vt 0.976807 0.801514
vt 0.757568 0.801514
vt 0.757568 0.744385
vt 0.976807 0.744385
vt 0.976807 0.629150
vt 0.757568 0.629150
vt 0.757568 0.569580
vt 0.976807 0.569580
vt 0.757568 0.859131
vt 0.976807 0.859131
vt 0.976807 0.920654
vt 0.757568 0.920654
vt 0.757568 0.510010
vt 0.976807 0.510010
vt 0.976807 0.982178
vt 0.757568 0.982178
vt 0.757568 0.686768
vt 0.976807 0.686768
vn 0.0000 0.0000 -1.0000
vn -0.7071 0.0000 -0.7071
vn -0.7071 0.0000 0.7071
vn 0.0000 0.0000 1.0000
vn 0.7071 0.0000 -0.7071
vn 1.0000 0.0000 0.0000
vn 0.7071 0.0000 0.7071
vn -1.0000 0.0000 0.0000
s 1
f 9/1/1 10/2/1 4/3/2 2/4/2
f 6/5/3 8/6/3 12/7/4 11/8/4
f 3/9/5 1/10/5 14/11/6 15/12/6
f 11/8/4 12/7/4 7/13/7 5/14/7
f 15/12/6 14/11/6 5/15/7 7/16/7
f 2/4/2 4/3/2 16/17/8 13/18/8
f 13/18/8 16/17/8 8/6/3 6/5/3
f 3/9/5 10/2/1 9/1/1 1/10/5
g merge
v 0.237884 0.500001 0.237661
v 0.237884 0.500001 -0.237662
v -0.237440 0.500000 -0.237662
v 0.237913 0.437500 0.237690
v -0.237469 0.437500 -0.237691
v -0.237440 0.500000 0.237661
v -0.237468 0.437500 0.237690
v 0.237913 0.437500 -0.237691
v 0.327007 0.500001 -0.000001
v 0.000222 0.500000 -0.326785
v 0.000222 0.437500 0.326784
v -0.326563 0.437500 -0.000000
v 0.000222 0.437500 -0.326785
v 0.000222 0.500000 0.326784
v -0.326563 0.500000 -0.000000
v 0.327007 0.437500 -0.000001
v 0.237884 -0.437499 0.237661
v 0.237884 -0.437499 -0.237662
v -0.237440 -0.437499 -0.237662
v 0.237913 -0.500000 0.237690
v -0.237469 -0.500000 -0.237691
v -0.237440 -0.437499 0.237661
v -0.237469 -0.500000 0.237690
v 0.237913 -0.500000 -0.237691
v 0.327007 -0.437499 -0.000001
v 0.000222 -0.437499 -0.326785
v 0.000222 -0.500000 0.326784
v -0.326563 -0.500000 -0.000000
v 0.000222 -0.500000 -0.326785
v 0.000222 -0.437499 0.326784
v -0.326563 -0.437499 -0.000000
v 0.327007 -0.500000 -0.000001
v 0.313793 -0.437500 -0.021300
v 0.271194 -0.437500 -0.021300
v 0.271194 -0.437500 0.021299
v 0.313792 -0.437500 0.021299
v 0.313792 -0.410110 0.021299
v 0.271194 -0.410110 0.021299
v 0.271194 -0.410110 -0.021300
v 0.313793 -0.410110 -0.021300
v 0.023792 -0.437500 0.268700
v -0.018807 -0.437500 0.268700
v -0.018807 -0.437500 0.311299
v 0.023792 -0.437500 0.311299
v 0.023792 -0.410111 0.311299
v -0.018807 -0.410111 0.311299
v -0.018807 -0.410111 0.268700
v 0.023792 -0.410111 0.268700
v -0.021302 -0.437500 -0.313797
v -0.021302 -0.437500 -0.271198
v 0.021297 -0.437500 -0.271198
v 0.021297 -0.437500 -0.313797
v 0.021297 -0.410111 -0.313797
v 0.021297 -0.410111 -0.271198
v -0.021302 -0.410111 -0.271198
v -0.021302 -0.410111 -0.313797
v -0.313800 -0.437500 0.021299
v -0.271201 -0.437500 0.021299
v -0.271201 -0.437500 -0.021300
v -0.313800 -0.437500 -0.021300
v -0.313800 -0.410111 -0.021300
v -0.271201 -0.410111 -0.021300
v -0.271201 -0.410111 0.021299
v -0.313800 -0.410111 0.021299
v 0.236945 -0.437500 0.206826
v 0.206823 -0.437500 0.176704
v 0.176701 -0.437500 0.206826
v 0.206823 -0.437500 0.236948
v 0.206823 -0.410110 0.236948
v 0.176701 -0.410110 0.206826
v 0.206823 -0.410110 0.176704
v 0.236945 -0.410110 0.206826
v -0.173177 -0.437500 0.206826
v -0.203299 -0.437500 0.176704
v -0.233421 -0.437500 0.206826
v -0.203299 -0.437500 0.236948
v -0.203299 -0.410111 0.236948
v -0.233421 -0.410111 0.206826
v -0.203299 -0.410111 0.176704
v -0.173177 -0.410111 0.206826
v 0.206824 -0.437500 -0.236949
v 0.176701 -0.437500 -0.206827
v 0.206823 -0.437500 -0.176705
v 0.236946 -0.437500 -0.206827
v 0.236946 -0.410110 -0.206827
v 0.206823 -0.410110 -0.176705
v 0.176701 -0.410110 -0.206827
v 0.206823 -0.410110 -0.236949
v -0.236951 -0.437500 -0.206827
v -0.206829 -0.437500 -0.176705
v -0.176707 -0.437500 -0.206827
v -0.206829 -0.437500 -0.236949
v -0.206829 -0.410111 -0.236949
v -0.176707 -0.410111 -0.206827
v -0.206829 -0.410111 -0.176705
v -0.236951 -0.410111 -0.206827
v -0.313795 0.437501 -0.021299
v -0.271196 0.437501 -0.021299
v -0.271196 0.437501 0.021300
v -0.313794 0.437501 0.021300
v -0.313794 0.410112 0.021300
v -0.271196 0.410112 0.021300
v -0.271196 0.410112 -0.021299
v -0.313795 0.410112 -0.021299
v -0.023794 0.437501 0.268701
v 0.018805 0.437501 0.268701
v 0.018806 0.437501 0.311300
v -0.023793 0.437501 0.311300
v -0.023793 0.410112 0.311300
v 0.018806 0.410112 0.311300
v 0.018805 0.410112 0.268701
v -0.023794 0.410112 0.268701
v 0.021300 0.437500 -0.313796
v 0.021300 0.437500 -0.271197
v -0.021299 0.437500 -0.271196
v -0.021299 0.437500 -0.313795
v -0.021299 0.410111 -0.313795
v -0.021299 0.410111 -0.271196
v 0.021300 0.410111 -0.271197
v 0.021300 0.410111 -0.313796
v 0.313797 0.437500 0.021300
v 0.271198 0.437500 0.021300
v 0.271198 0.437500 -0.021298
v 0.313797 0.437500 -0.021299
v 0.313797 0.410111 -0.021299
v 0.271198 0.410111 -0.021298
v 0.271198 0.410111 0.021300
v 0.313797 0.410111 0.021300
v -0.236948 0.437501 0.206827
v -0.206826 0.437501 0.176705
v -0.176704 0.437501 0.206827
v -0.206826 0.437501 0.236949
v -0.206826 0.410112 0.236949
v -0.176704 0.410112 0.206827
v -0.206827 0.410112 0.176705
v -0.236948 0.410112 0.206827
v 0.173174 0.437501 0.206827
v 0.203295 0.437501 0.176705
v 0.233418 0.437501 0.206827
v 0.203296 0.437501 0.236949
v 0.203296 0.410112 0.236949
v 0.233418 0.410112 0.206827
v 0.203295 0.410112 0.176705
v 0.173174 0.410112 0.206827
v -0.206825 0.437501 -0.236948
v -0.176703 0.437501 -0.206826
v -0.206825 0.437501 -0.176704
v -0.236947 0.437501 -0.206826
v -0.236947 0.410112 -0.206826
v -0.206825 0.410112 -0.176704
v -0.176703 0.410112 -0.206826
v -0.206825 0.410112 -0.236948
v 0.236949 0.437500 -0.206827
v 0.206827 0.437500 -0.176704
v 0.176705 0.437500 -0.206826
v 0.206827 0.437500 -0.236948
v 0.206827 0.410110 -0.236948
v 0.176705 0.410110 -0.206826
v 0.206827 0.410110 -0.176704
v 0.236949 0.410110 -0.206827
vt 0.181641 0.619141
vt 0.150391 0.673828
vt 0.091797 0.685547
vt 0.037109 0.654297
vt 0.025391 0.595703
vt 0.056641 0.541016
vt 0.115234 0.529297
vt 0.169922 0.560547
vt 0.318359 0.568359
vt 0.376953 0.599609
vt 0.384766 0.658203
vt 0.353516 0.716797
vt 0.294922 0.724609
vt 0.236328 0.693359
vt 0.228516 0.634766
vt 0.259766 0.576172
vt 0.181641 0.619141
vt 0.150391 0.673828
vt 0.091797 0.685547
vt 0.037109 0.654297
vt 0.025391 0.595703
vt 0.056641 0.541016
vt 0.115234 0.529297
vt 0.169922 0.560547
vt 0.318359 0.568359
vt 0.376953 0.599609
vt 0.384766 0.658203
vt 0.353516 0.716797
vt 0.294922 0.724609
vt 0.236328 0.693359
vt 0.228516 0.634766
vt 0.259766 0.576172
vt 0.596436 0.598877
vt 0.602295 0.593506
vt 0.619385 0.601318
vt 0.619873 0.609131
vt 0.594482 0.593994
vt 0.605225 0.571533
vt 0.610107 0.576416
vt 0.625244 0.607178
vt 0.627197 0.584229
vt 0.634033 0.583252
vt 0.609131 0.568604
vt 0.632568 0.579346
vt 0.596436 0.598877
vt 0.602295 0.593506
vt 0.619385 0.601318
vt 0.619873 0.609131
vt 0.594482 0.593994
vt 0.605225 0.571533
vt 0.610107 0.576416
vt 0.625244 0.607178
vt 0.627197 0.584229
vt 0.634033 0.583252
vt 0.609131 0.568604
vt 0.632568 0.579346
vt 0.596436 0.598877
vt 0.602295 0.593506
vt 0.619385 0.601318
vt 0.619873 0.609131
vt 0.594482 0.593994
vt 0.605225 0.571533
vt 0.610107 0.576416
vt 0.625244 0.607178
vt 0.627197 0.584229
vt 0.634033 0.583252
vt 0.609131 0.568604
vt 0.632568 0.579346
vt 0.596436 0.598877
vt 0.602295 0.593506
vt 0.619385 0.601318
vt 0.619873 0.609131
vt 0.594482 0.593994
vt 0.605225 0.571533
vt 0.610107 0.576416
vt 0.625244 0.607178
vt 0.627197 0.584229
vt 0.634033 0.583252
vt 0.609131 0.568604
vt 0.632568 0.579346
vt 0.596436 0.598877
vt 0.602295 0.593506
vt 0.619385 0.601318
vt 0.619873 0.609131
vt 0.594482 0.593994
vt 0.605225 0.571533
vt 0.610107 0.576416
vt 0.625244 0.607178
vt 0.627197 0.584229
vt 0.634033 0.583252
vt 0.609131 0.568604
vt 0.632568 0.579346
vt 0.596436 0.598877
vt 0.602295 0.593506
vt 0.619385 0.601318
vt 0.619873 0.609131
vt 0.594482 0.593994
vt 0.605225 0.571533
vt 0.610107 0.576416
vt 0.625244 0.607178
vt 0.627197 0.584229
vt 0.634033 0.583252
vt 0.609131 0.568604
vt 0.632568 0.579346
vt 0.596436 0.598877
vt 0.602295 0.593506
vt 0.619385 0.601318
vt 0.619873 0.609131
vt 0.594482 0.593994
vt 0.605225 0.571533
vt 0.610107 0.576416
vt 0.625244 0.607178
vt 0.627197 0.584229
vt 0.634033 0.583252
vt 0.609131 0.568604
vt 0.632568 0.579346
vt 0.596436 0.598877
vt 0.602295 0.593506
vt 0.619385 0.601318
vt 0.619873 0.609131
vt 0.594482 0.593994
vt 0.605225 0.571533
vt 0.610107 0.576416
vt 0.625244 0.607178
vt 0.627197 0.584229
vt 0.634033 0.583252
vt 0.609131 0.568604
vt 0.632568 0.579346
vt 0.596436 0.598877
vt 0.602295 0.593506
vt 0.619385 0.601318
vt 0.619873 0.609131
vt 0.594482 0.593994
vt 0.605225 0.571533
vt 0.610107 0.576416
vt 0.625244 0.607178
vt 0.627197 0.584229
vt 0.634033 0.583252
vt 0.609131 0.568604
vt 0.632568 0.579346
vt 0.596436 0.598877
vt 0.602295 0.593506
vt 0.619385 0.601318
vt 0.619873 0.609131
vt 0.594482 0.593994
vt 0.605225 0.571533
vt 0.610107 0.576416
vt 0.625244 0.607178
vt 0.627197 0.584229
vt 0.634033 0.583252
vt 0.609131 0.568604
vt 0.632568 0.579346
vt 0.596436 0.598877
vt 0.602295 0.593506
vt 0.619385 0.601318
vt 0.619873 0.609131
vt 0.594482 0.593994
vt 0.605225 0.571533
vt 0.610107 0.576416
vt 0.625244 0.607178
vt 0.627197 0.584229
vt 0.634033 0.583252
vt 0.609131 0.568604
vt 0.632568 0.579346
vt 0.596436 0.598877
vt 0.602295 0.593506
vt 0.619385 0.601318
vt 0.619873 0.609131
vt 0.594482 0.593994
vt 0.605225 0.571533
vt 0.610107 0.576416
vt 0.625244 0.607178
vt 0.627197 0.584229
vt 0.634033 0.583252
vt 0.609131 0.568604
vt 0.632568 0.579346
vt 0.596436 0.598877
vt 0.602295 0.593506
vt 0.619385 0.601318
vt 0.619873 0.609131
vt 0.594482 0.593994
vt 0.605225 0.571533
vt 0.610107 0.576416
vt 0.625244 0.607178
vt 0.627197 0.584229
vt 0.634033 0.583252
vt 0.609131 0.568604
vt 0.632568 0.579346
vt 0.596436 0.598877
vt 0.602295 0.593506
vt 0.619385 0.601318
vt 0.619873 0.609131
vt 0.594482 0.593994
vt 0.605225 0.571533
vt 0.610107 0.576416
vt 0.625244 0.607178
vt 0.627197 0.584229
vt 0.634033 0.583252
vt 0.609131 0.568604
vt 0.632568 0.579346
vt 0.596436 0.598877
vt 0.602295 0.593506
vt 0.619385 0.601318
vt 0.619873 0.609131
vt 0.594482 0.593994
vt 0.605225 0.571533
vt 0.610107 0.576416
vt 0.625244 0.607178
vt 0.627197 0.584229
vt 0.634033 0.583252
vt 0.609131 0.568604
vt 0.632568 0.579346
vt 0.596436 0.598877
vt 0.602295 0.593506
vt 0.619385 0.601318
vt 0.619873 0.609131
vt 0.594482 0.593994
vt 0.605225 0.571533
vt 0.610107 0.576416
vt 0.625244 0.607178
vt 0.627197 0.584229
vt 0.634033 0.583252
vt 0.609131 0.568604
vt 0.632568 0.579346
vt 0.322266 0.552734
vt 0.384766 0.583984
vt 0.255859 0.560547
vt 0.291016 0.740234
vt 0.228516 0.708984
vt 0.220703 0.697266
vt 0.212891 0.630859
vt 0.244141 0.564453
vt 0.357422 0.732422
vt 0.392578 0.595703
vt 0.400391 0.662109
vt 0.369141 0.724609
vt 0.322266 0.552734
vt 0.384766 0.583984
vt 0.255859 0.560547
vt 0.291016 0.740234
vt 0.228516 0.708984
vt 0.220703 0.697266
vt 0.212891 0.630859
vt 0.244141 0.564453
vt 0.357422 0.732422
vt 0.392578 0.595703
vt 0.400391 0.662109
vt 0.369141 0.724609
vn -0.0000 1.0000 -0.0000
vn 0.0000 -1.0000 0.0000
vn 0.0000 0.0000 -1.0000
vn -1.0000 0.0000 0.0000
vn 1.0000 0.0000 0.0000
vn -0.0000 0.0000 1.0000
vn 0.7071 0.0000 -0.7071
vn -0.7071 0.0000 -0.7071
vn 0.7071 0.0000 0.7071
vn -0.7071 0.0000 0.7071
vn -0.7716 0.6361 0.0000
vn -0.5520 0.6248 -0.5520
vn -0.5522 -0.6246 -0.5522
vn -0.7718 -0.6358 0.0000
vn -0.5522 -0.6246 0.5522
vn -0.5520 0.6248 0.5520
vn 0.7716 0.6361 0.0000
vn 0.5520 0.6248 0.5520
vn 0.5522 -0.6246 0.5522
vn 0.7718 -0.6358 0.0000
vn 0.0000 0.6361 0.7716
vn 0.0000 -0.6358 0.7718
vn 0.5522 -0.6246 -0.5522
vn 0.5520 0.6248 -0.5520
vn 0.0000 -0.6358 -0.7718
vn 0.0000 0.6361 -0.7716
s off
f 30/19/9 17/20/9 25/21/9 18/22/9 26/23/9 19/24/9 31/25/9 22/26/9
f 28/27/10 21/28/10 29/29/10 24/30/10 32/31/10 20/32/10 27/33/10 23/34/10
f 46/35/9 33/36/9 41/37/9 34/38/9 42/39/9 35/40/9 47/41/9 38/42/9
f 44/43/10 37/44/10 45/45/10 40/46/10 48/47/10 36/48/10 43/49/10 39/50/10
f 50/51/11 55/52/11 56/53/11 49/54/11
f 50/55/12 51/56/12 54/57/12 55/52/12
f 49/58/13 56/53/13 53/59/13 52/60/13
f 55/52/9 54/57/9 53/59/9 56/53/9
f 51/61/14 52/62/14 53/59/14 54/57/14
f 58/63/11 63/64/11 64/65/11 57/66/11
f 58/67/12 59/68/12 62/69/12 63/64/12
f 57/70/13 64/65/13 61/71/13 60/72/13
f 63/64/9 62/69/9 61/71/9 64/65/9
f 59/73/14 60/74/14 61/71/14 62/69/14
f 66/75/12 71/76/12 72/77/12 65/78/12
f 66/79/14 67/80/14 70/81/14 71/76/14
f 65/82/11 72/77/11 69/83/11 68/84/11
f 71/76/9 70/81/9 69/83/9 72/77/9
f 67/85/13 68/86/13 69/83/13 70/81/13
f 74/87/14 79/88/14 80/89/14 73/90/14
f 74/91/13 75/92/13 78/93/13 79/88/13
f 73/94/12 80/89/12 77/95/12 76/96/12
f 79/88/9 78/93/9 77/95/9 80/89/9
f 75/97/11 76/98/11 77/95/11 78/93/11
f 82/99/15 87/100/15 88/101/15 81/102/15
f 82/103/16 83/104/16 86/105/16 87/100/16
f 81/106/17 88/101/17 85/107/17 84/108/17
f 87/100/9 86/105/9 85/107/9 88/101/9
f 83/109/18 84/110/18 85/107/18 86/105/18
f 90/111/15 95/112/15 96/113/15 89/114/15
f 90/115/16 91/116/16 94/117/16 95/112/16
f 89/118/17 96/113/17 93/119/17 92/120/17
f 95/112/9 94/117/9 93/119/9 96/113/9
f 91/121/18 92/122/18 93/119/18 94/117/18
f 98/123/16 103/124/16 104/125/16 97/126/16
f 98/127/18 99/128/18 102/129/18 103/124/18
f 97/130/15 104/125/15 101/131/15 100/132/15
f 103/124/9 102/129/9 101/131/9 104/125/9
f 99/133/17 100/134/17 101/131/17 102/129/17
f 106/135/18 111/136/18 112/137/18 105/138/18
f 106/139/17 107/140/17 110/141/17 111/136/17
f 105/142/16 112/137/16 109/143/16 108/144/16
f 111/136/9 110/141/9 109/143/9 112/137/9
f 107/145/15 108/146/15 109/143/15 110/141/15
f 114/147/11 119/148/11 120/149/11 113/150/11
f 114/151/13 115/152/13 118/153/13 119/148/13
f 113/154/12 120/149/12 117/155/12 116/156/12
f 119/148/10 118/153/10 117/155/10 120/149/10
f 115/157/14 116/158/14 117/155/14 118/153/14
f 122/159/11 127/160/11 128/161/11 121/162/11
f 122/163/13 123/164/13 126/165/13 127/160/13
f 121/166/12 128/161/12 125/167/12 124/168/12
f 127/160/10 126/165/10 125/167/10 128/161/10
f 123/169/14 124/170/14 125/167/14 126/165/14
f 130/171/13 135/172/13 136/173/13 129/174/13
f 130/175/14 131/176/14 134/177/14 135/172/14
f 129/178/11 136/173/11 133/179/11 132/180/11
f 135/172/10 134/177/10 133/179/10 136/173/10
f 131/181/12 132/182/12 133/179/12 134/177/12
f 138/183/14 143/184/14 144/185/14 137/186/14
f 138/187/12 139/188/12 142/189/12 143/184/12
f 137/190/13 144/185/13 141/191/13 140/192/13
f 143/184/10 142/189/10 141/191/10 144/185/10
f 139/193/11 140/194/11 141/191/11 142/189/11
f 146/195/16 151/196/16 152/197/16 145/198/16
f 146/199/15 147/200/15 150/201/15 151/196/15
f 145/202/18 152/197/18 149/203/18 148/204/18
f 151/196/10 150/201/10 149/203/10 152/197/10
f 147/205/17 148/206/17 149/203/17 150/201/17
f 154/207/16 159/208/16 160/209/16 153/210/16
f 154/211/15 155/212/15 158/213/15 159/208/15
f 153/214/18 160/209/18 157/215/18 156/216/18
f 159/208/10 158/213/10 157/215/10 160/209/10
f 155/217/17 156/218/17 157/215/17 158/213/17
f 162/219/15 167/220/15 168/221/15 161/222/15
f 162/223/17 163/224/17 166/225/17 167/220/17
f 161/226/16 168/221/16 165/227/16 164/228/16
f 167/220/10 166/225/10 165/227/10 168/221/10
f 163/229/18 164/230/18 165/227/18 166/225/18
f 170/231/17 175/232/17 176/233/17 169/234/17
f 170/235/18 171/236/18 174/237/18 175/232/18
f 169/238/15 176/233/15 173/239/15 172/240/15
f 175/232/10 174/237/10 173/239/10 176/233/10
f 171/241/16 172/242/16 173/239/16 174/237/16
s 1
f 31/243/19 19/244/20 21/28/21 28/27/22
f 28/27/22 23/34/23 22/245/24 31/243/19
f 25/246/25 17/247/26 20/32/27 32/31/28
f 20/32/27 17/248/26 30/249/29 27/33/30
f 30/249/29 22/250/24 23/34/23 27/33/30
f 24/30/31 18/251/32 25/246/25 32/31/28
f 29/29/33 21/28/21 19/252/20 26/253/34
f 26/253/34 18/254/32 24/30/31 29/29/33
f 47/255/19 35/256/20 37/44/21 44/43/22
f 44/43/22 39/50/23 38/257/24 47/255/19
f 41/258/25 33/259/26 36/48/27 48/47/28
f 36/48/27 33/260/26 46/261/29 43/49/30
f 46/261/29 38/262/24 39/50/23 43/49/30
f 40/46/31 34/263/32 41/258/25 48/47/28
f 45/45/33 37/44/21 35/264/20 42/265/34
f 42/265/34 34/266/32 40/46/31 45/45/33
