# Blender v2.80 (sub 74) OBJ File: 'parametric.blend'
# www.blender.org
g coll.006_Cube.009
v 0.333335 -8.000000 -0.333333
v -0.333331 -8.000000 -0.333333
v 0.333335 -8.000000 0.333333
v -0.333331 -8.000000 0.333333
v 0.333332 8.000000 -0.333333
v -0.333335 8.000000 -0.333333
v 0.333332 8.000000 0.333333
v -0.333335 8.000000 0.333333
v -0.458335 8.000000 0.000000
v -0.333333 -0.000000 -0.333333
v 0.000001 -8.000000 -0.458333
v -0.000001 8.000000 0.458333
v 0.000002 -8.000000 0.458333
v -0.000002 8.000000 -0.458333
v 0.333334 0.000000 0.333333
v 0.458335 -8.000000 -0.000000
v -0.333333 -0.000000 0.333333
v 0.458332 8.000000 -0.000000
v 0.333333 0.000000 -0.333333
v -0.458332 -8.000000 0.000000
v 0.458333 0.000000 -0.000000
v 0.000001 0.000000 0.458333
v -0.458333 -0.000000 0.000000
v 0.000000 -0.000000 -0.458333
vt 0.799054 0.420279
vt 0.813642 0.395297
vt 0.842057 0.389862
vt 0.867039 0.404451
vt 0.872474 0.432865
vt 0.857885 0.457847
vt 0.829471 0.463283
vt 0.804489 0.448694
vt 0.854010 0.549330
vt 0.825595 0.554765
vt 0.800613 0.540176
vt 0.795178 0.511762
vt 0.809767 0.486780
vt 0.838181 0.481345
vt 0.863163 0.495934
vt 0.868598 0.524348
vt 0.278707 0.669941
vt 0.278708 0.019833
vt 0.308183 0.019833
vt 0.308184 0.669941
vt 0.220631 0.019832
vt 0.220632 0.669941
vt 0.191156 0.669941
vt 0.191155 0.019832
vt 0.250107 0.019832
vt 0.250107 0.669941
vt 0.043776 0.019833
vt 0.073251 0.019833
vt 0.073252 0.669941
vt 0.043776 0.669941
vt 0.014300 0.669941
vt 0.014300 0.019833
vt 0.514515 0.019832
vt 0.514515 0.669941
vt 0.485039 0.669941
vt 0.485039 0.019832
vt 0.132205 0.669941
vt 0.102729 0.669941
vt 0.102727 0.019833
vt 0.132203 0.019833
vt 0.455562 0.019832
vt 0.455563 0.669941
vt 0.367135 0.019833
vt 0.396610 0.019832
vt 0.396612 0.669941
vt 0.367136 0.669941
vt 0.426086 0.019832
vt 0.426088 0.669941
vt 0.337660 0.669941
vt 0.337659 0.019833
vt 0.161680 0.669941
vt 0.161679 0.019832
vn 0.0000 1.0000 -0.0000
vn 0.0000 -1.0000 0.0000
vn 0.7071 0.0000 0.7071
vn 1.0000 0.0000 -0.0000
vn 0.7071 0.0000 -0.7071
vn 0.0000 -0.0000 1.0000
vn -0.7071 -0.0000 0.7071
vn -0.7071 -0.0000 -0.7071
vn -1.0000 -0.0000 0.0000
vn -0.0000 0.0000 -1.0000
s off
f 9/1/1 8/2/1 12/3/1 7/4/1 18/5/1 5/6/1 14/7/1 6/8/1
f 1/9/2 16/10/2 3/11/2 13/12/2 4/13/2 20/14/2 2/15/2 11/16/2
s 1
f 7/17/3 15/18/3 21/19/4 18/20/4
f 21/21/4 16/22/4 1/23/5 19/24/5
f 21/21/4 15/25/3 3/26/3 16/22/4
f 22/27/6 17/28/7 4/29/7 13/30/6
f 3/31/3 15/32/3 22/27/6 13/30/6
f 15/33/3 7/34/3 12/35/6 22/36/6
f 2/37/8 20/38/9 23/39/9 10/40/8
f 17/41/7 22/36/6 12/35/6 8/42/7
f 24/43/10 10/44/8 6/45/8 14/46/10
f 4/29/7 17/28/7 23/39/9 20/38/9
f 10/44/8 23/47/9 9/48/9 6/45/8
f 23/47/9 17/41/7 8/42/7 9/48/9
f 5/49/5 19/50/5 24/43/10 14/46/10
f 19/24/5 1/23/5 11/51/10 24/52/10
f 10/40/8 24/52/10 11/51/10 2/37/8
f 5/49/5 18/20/4 21/19/4 19/50/5
