# Exported from Wings 3D 1.5.2
mtllib circular-lamp.mtl
o circular-lamp
#128 vertices, 98 faces
v 1.00000000 0.19855657 0.0000000e+0
v 0.98078528 0.19855657 0.19509032
v 0.92387953 0.19855657 0.38268343
v 0.83146961 0.19855657 0.55557023
v 0.70710678 0.19855657 0.70710678
v 0.55557023 0.19855657 0.83146961
v 0.38268343 0.19855657 0.92387953
v 0.19509032 0.19855657 0.98078528
v 6.1232340e-17 0.19855657 1.00000000
v -0.19509032 0.19855657 0.98078528
v -0.38268343 0.19855657 0.92387953
v -0.55557023 0.19855657 0.83146961
v -0.70710678 0.19855657 0.70710678
v -0.83146961 0.19855657 0.55557023
v -0.92387953 0.19855657 0.38268343
v -0.98078528 0.19855657 0.19509032
v -1.00000000 0.19855657 1.2246468e-16
v -0.98078528 0.19855657 -0.19509032
v -0.92387953 0.19855657 -0.38268343
v -0.83146961 0.19855657 -0.55557023
v -0.70710678 0.19855657 -0.70710678
v -0.55557023 0.19855657 -0.83146961
v -0.38268343 0.19855657 -0.92387953
v -0.19509032 0.19855657 -0.98078528
v -1.8369702e-16 0.19855657 -1.00000000
v 0.19509032 0.19855657 -0.98078528
v 0.38268343 0.19855657 -0.92387953
v 0.55557023 0.19855657 -0.83146961
v 0.70710678 0.19855657 -0.70710678
v 0.83146961 0.19855657 -0.55557023
v 0.92387953 0.19855657 -0.38268343
v 0.98078528 0.19855657 -0.19509032
v 1.00000000 -1.4434323e-3 -6.6689244e-18
v 0.98078528 -1.4434323e-3 0.19509032
v 0.92387953 -1.4434323e-3 0.38268343
v 0.83146961 -1.4434323e-3 0.55557023
v 0.70710678 -1.4434323e-3 0.70710678
v 0.55557023 -1.4434323e-3 0.83146961
v 0.38268343 -1.4434323e-3 0.92387953
v 0.19509032 -1.4434323e-3 0.98078528
v 6.1232340e-17 -1.4434323e-3 1.00000000
v -0.19509032 -1.4434323e-3 0.98078528
v -0.38268343 -1.4434323e-3 0.92387953
v -0.55557023 -1.4434323e-3 0.83146961
v -0.70710678 -1.4434323e-3 0.70710678
v -0.83146961 -1.4434323e-3 0.55557023
v -0.92387953 -1.4434323e-3 0.38268343
v -0.98078528 -1.4434323e-3 0.19509032
v -1.00000000 -1.4434323e-3 1.1579576e-16
v -0.98078528 -1.4434323e-3 -0.19509032
v -0.92387953 -1.4434323e-3 -0.38268343
v -0.83146961 -1.4434323e-3 -0.55557023
v -0.70710678 -1.4434323e-3 -0.70710678
v -0.55557023 -1.4434323e-3 -0.83146961
v -0.38268343 -1.4434323e-3 -0.92387953
v -0.19509032 -1.4434323e-3 -0.98078528
v -1.8369702e-16 -1.4434323e-3 -1.00000000
v 0.19509032 -1.4434323e-3 -0.98078528
v 0.38268343 -1.4434323e-3 -0.92387953
v 0.55557023 -1.4434323e-3 -0.83146961
v 0.70710678 -1.4434323e-3 -0.70710678
v 0.83146961 -1.4434323e-3 -0.55557023
v 0.92387953 -1.4434323e-3 -0.38268343
v 0.98078528 -1.4434323e-3 -0.19509032
v 0.73558896 0.19855657 0.14631774
v 0.75000000 0.19855657 3.8348575e-17
v 0.73558896 0.19855657 -0.14631774
v 0.69290965 0.19855657 -0.28701257
v 0.62360221 0.19855657 -0.41667767
v 0.53033009 0.19855657 -0.53033009
v 0.41667767 0.19855657 -0.62360221
v 0.28701257 0.19855657 -0.69290965
v 0.14631774 0.19855657 -0.73558896
v -1.1397234e-16 0.19855657 -0.75000000
v -0.14631774 0.19855657 -0.73558896
v -0.28701257 0.19855657 -0.69290965
v -0.41667767 0.19855657 -0.62360221
v -0.53033009 0.19855657 -0.53033009
v -0.62360221 0.19855657 -0.41667767
v -0.69290965 0.19855657 -0.28701257
v -0.73558896 0.19855657 -0.14631774
v -0.75000000 0.19855657 1.2420780e-16
v -0.73558896 0.19855657 0.14631774
v -0.69290965 0.19855657 0.28701257
v -0.62360221 0.19855657 0.41667767
v -0.53033009 0.19855657 0.53033009
v -0.41667767 0.19855657 0.62360221
v -0.28701257 0.19855657 0.69290965
v -0.14631774 0.19855657 0.73558896
v 6.2975457e-17 0.19855657 0.75000000
v 0.14631774 0.19855657 0.73558896
v 0.28701257 0.19855657 0.69290965
v 0.41667767 0.19855657 0.62360221
v 0.53033009 0.19855657 0.53033009
v 0.62360221 0.19855657 0.41667767
v 0.69290965 0.19855657 0.28701257
v 0.73558896 9.8556568e-2 0.14631774
v 0.75000000 9.8556568e-2 4.0719748e-17
v 0.73558896 9.8556568e-2 -0.14631774
v 0.69290965 9.8556568e-2 -0.28701257
v 0.62360221 9.8556568e-2 -0.41667767
v 0.53033009 9.8556568e-2 -0.53033009
v 0.41667767 9.8556568e-2 -0.62360221
v 0.28701257 9.8556568e-2 -0.69290965
v 0.14631774 9.8556568e-2 -0.73558896
v -1.1397234e-16 9.8556568e-2 -0.75000000
v -0.14631774 9.8556568e-2 -0.73558896
v -0.28701257 9.8556568e-2 -0.69290965
v -0.41667767 9.8556568e-2 -0.62360221
v -0.53033009 9.8556568e-2 -0.53033009
v -0.62360221 9.8556568e-2 -0.41667767
v -0.69290965 9.8556568e-2 -0.28701257
v -0.73558896 9.8556568e-2 -0.14631774
v -0.75000000 9.8556568e-2 1.2657897e-16
v -0.73558896 9.8556568e-2 0.14631774
v -0.69290965 9.8556568e-2 0.28701257
v -0.62360221 9.8556568e-2 0.41667767
v -0.53033009 9.8556568e-2 0.53033009
v -0.41667767 9.8556568e-2 0.62360221
v -0.28701257 9.8556568e-2 0.69290965
v -0.14631774 9.8556568e-2 0.73558896
v 6.2975457e-17 9.8556568e-2 0.75000000
v 0.14631774 9.8556568e-2 0.73558896
v 0.28701257 9.8556568e-2 0.69290965
v 0.41667767 9.8556568e-2 0.62360221
v 0.53033009 9.8556568e-2 0.53033009
v 0.62360221 9.8556568e-2 0.41667767
v 0.69290965 9.8556568e-2 0.28701257
vt 1.2976000e-2 4.7294802e-2
vt 1.2976000e-2 1.5412623e-2
vt 2.7159263e-2 0.53331461
vt 2.7159263e-2 0.49285992
vt 2.7159263e-2 0.53329339
vt 2.7159263e-2 0.49283870
vt 3.8328904e-2 0.26017914
vt 4.2001707e-2 0.22285619
vt 4.2005319e-2 0.29748932
vt 4.3415000e-2 4.7294802e-2
vt 4.3415000e-2 1.5412623e-2
vt 5.2886152e-2 0.18696718
vt 5.2889280e-2 0.33336893
vt 7.0555914e-2 0.15390140
vt 7.0573472e-2 0.36644413
vt 7.3854000e-2 4.7294802e-2
vt 7.3854000e-2 1.5412623e-2
vt 8.6148633e-2 0.26017445
vt 8.6638067e-2 0.49285992
vt 8.6638067e-2 0.53331461
vt 8.6638067e-2 0.53329339
vt 8.6638067e-2 0.49283870
vt 8.8901009e-2 0.28815707
vt 8.8909986e-2 0.23218329
vt 9.4337712e-2 0.12491463
vt 9.4355064e-2 0.39542754
vt 9.7066680e-2 0.20526492
vt 9.7077951e-2 0.31506766
vt 0.10429300 1.5412623e-2
vt 0.10429300 4.7294802e-2
vt 0.11031443 0.18046372
vt 0.11034894 0.33988247
vt 0.12332966 0.10112038
vt 0.12335025 0.41921289
vt 0.12816403 0.15872816
vt 0.12817490 0.36161098
vt 0.13473200 1.5412623e-2
vt 0.13473200 4.7294802e-2
vt 0.14611687 0.53329339
vt 0.14611687 0.49285992
vt 0.14611687 0.53331461
vt 0.14611687 0.49283870
vt 0.14991845 0.14087771
vt 0.14991993 0.37943381
vt 0.15638989 8.3439225e-2
vt 0.15642775 0.43689316
vt 0.16517100 4.7294802e-2
vt 0.16517100 1.5412623e-2
vt 0.17470072 0.12762129
vt 0.17472691 0.39270338
vt 0.19227863 7.2555197e-2
vt 0.19230809 0.44777227
vt 0.19561000 4.7294802e-2
vt 0.19561000 1.5412623e-2
vt 0.20160982 0.11947270
vt 0.20163368 0.40087161
vt 0.20559568 0.53331461
vt 0.20559568 0.49285992
vt 0.20559568 0.53329339
vt 0.20559568 0.49283870
vt 0.22604900 1.5412623e-2
vt 0.22604900 4.7294802e-2
vt 0.22960367 6.8873559e-2
vt 0.22960612 0.11670238
vt 0.22961855 0.40361787
vt 0.22962100 0.45144669
vt 0.25648800 1.5412623e-2
vt 0.25648800 4.7294802e-2
vt 0.25759099 0.11944864
vt 0.25761485 0.40084755
vt 0.26507448 0.53329339
vt 0.26507448 0.53331461
vt 0.26507448 0.49283870
vt 0.26507448 0.49285992
vt 0.26691657 7.2547983e-2
vt 0.26694604 0.44776505
vt 0.28449776 0.12761687
vt 0.28452395 0.39269896
vt 0.28692700 4.7294802e-2
vt 0.28692700 1.5412623e-2
vt 0.30279692 8.3427088e-2
vt 0.30283478 0.43688102
vt 0.30930474 0.14088644
vt 0.30930621 0.37944254
vt 0.31736600 4.7294802e-2
vt 0.31736600 1.5412623e-2
vt 0.31819557 0.78160035
vt 0.32095231 0.80958992
vt 0.32095231 0.75361078
vt 0.32455328 0.53331461
vt 0.32455328 0.53329339
vt 0.32455328 0.49283870
vt 0.32455328 0.49285992
vt 0.32911656 0.72669684
vt 0.32911656 0.83650387
vt 0.33104977 0.15870927
vt 0.33106064 0.36159208
vt 0.33587442 0.10110736
vt 0.33589501 0.41919987
vt 0.34237460 0.86130791
vt 0.34237460 0.70189280
vt 0.34780500 1.5412623e-2
vt 0.34780500 4.7294802e-2
vt 0.34887573 0.18043778
vt 0.34891023 0.33985653
vt 0.36021691 0.68015188
vt 0.36021691 0.88304883
vt 0.36214672 0.20525258
vt 0.36215799 0.31505533
vt 0.36486960 0.12489271
vt 0.36488696 0.39540562
vt 0.37031468 0.28813696
vt 0.37032366 0.23216318
vt 0.37307604 0.26014580
vt 0.37824400 1.5412623e-2
vt 0.37824400 4.7294802e-2
vt 0.38195783 0.66230957
vt 0.38195783 0.90089114
vt 0.38403209 0.53331461
vt 0.38403209 0.49283870
vt 0.38403209 0.53329339
vt 0.38403209 0.49285992
vt 0.38865120 0.15387612
vt 0.38866875 0.36641885
vt 0.40633539 0.18695132
vt 0.40633852 0.33335307
vt 0.40676186 0.91414917
vt 0.40676186 0.64905154
vt 0.40868300 4.7294802e-2
vt 0.40868300 1.5412623e-2
vt 0.41721935 0.22283093
vt 0.41722296 0.29746406
vt 0.42089576 0.26014111
vt 0.43367581 0.92231343
vt 0.43367581 0.64088728
vt 0.43912200 4.7294802e-2
vt 0.43912200 1.5412623e-2
vt 0.44351089 0.53331461
vt 0.44351089 0.49285992
vt 0.44351089 0.49283870
vt 0.44351089 0.53329339
vt 0.46166538 0.92507016
vt 0.46166538 0.63813055
vt 0.46956100 1.5412623e-2
vt 0.46956100 4.7294802e-2
vt 0.48965495 0.92231343
vt 0.48965495 0.64088728
vt 0.50000000 4.7294802e-2
vt 0.50000000 1.5412623e-2
vt 0.50298970 0.53329339
vt 0.50298970 0.49283870
vt 0.50298970 0.53331461
vt 0.50298970 0.49285992
vt 0.51656890 0.91414917
vt 0.51656890 0.64905154
vt 0.53043900 1.5412623e-2
vt 0.53043900 4.7294802e-2
vt 0.54137293 0.66230957
vt 0.54137293 0.90089114
vt 0.56087800 4.7294802e-2
vt 0.56087800 1.5412623e-2
vt 0.56246850 0.49283870
vt 0.56246850 0.53329339
vt 0.56246850 0.53331461
vt 0.56246850 0.49285992
vt 0.56311385 0.88304883
vt 0.56311385 0.68015188
vt 0.56543800 0.27933081
vt 0.56910630 0.24208602
vt 0.56910630 0.31657560
vt 0.57997020 0.20627253
vt 0.57997020 0.35238909
vt 0.58095616 0.70189280
vt 0.58095616 0.86130791
vt 0.59131700 4.7294802e-2
vt 0.59131700 1.5412623e-2
vt 0.59421420 0.72669684
vt 0.59421420 0.83650387
vt 0.59761222 0.17326663
vt 0.59761222 0.38539499
vt 0.60237845 0.75361078
vt 0.60237845 0.80958992
vt 0.60513518 0.78160035
vt 0.62135439 0.14433671
vt 0.62135439 0.41432491
vt 0.62175600 1.5412623e-2
vt 0.62175600 4.7294802e-2
vt 0.62194730 0.49283870
vt 0.62194730 0.53329339
vt 0.62194730 0.53331461
vt 0.62194730 0.49285992
vt 0.65028431 0.12059454
vt 0.65028431 0.43806708
vt 0.65219500 1.5412623e-2
vt 0.65219500 4.7294802e-2
vt 0.68142611 0.53331461
vt 0.68142611 0.53329339
vt 0.68142611 0.49283870
vt 0.68142611 0.49285992
vt 0.68263400 1.5412623e-2
vt 0.68263400 4.7294802e-2
vt 0.68329021 0.10295252
vt 0.68329021 0.45570910
vt 0.71307300 4.7294802e-2
vt 0.71307300 1.5412623e-2
vt 0.71910370 9.2088614e-2
vt 0.71910370 0.46657301
vt 0.74090491 0.53329339
vt 0.74090491 0.49283870
vt 0.74090491 0.53331461
vt 0.74090491 0.49285992
vt 0.74351200 4.7294802e-2
vt 0.74351200 1.5412623e-2
vt 0.75634849 8.8420323e-2
vt 0.75634849 0.47024130
vt 0.77395100 1.5412623e-2
vt 0.77395100 4.7294802e-2
vt 0.79359328 9.2088614e-2
vt 0.79359328 0.46657301
vt 0.80038372 0.53329339
vt 0.80038372 0.49283870
vt 0.80038372 0.53331461
vt 0.80038372 0.49285992
vt 0.80439000 1.5412623e-2
vt 0.80439000 4.7294802e-2
vt 0.82940677 0.10295252
vt 0.82940677 0.45570910
vt 0.83482900 1.5412623e-2
vt 0.83482900 4.7294802e-2
vt 0.85986252 0.53329339
vt 0.85986252 0.53331461
vt 0.85986252 0.49285992
vt 0.85986252 0.49283870
vt 0.86241268 0.12059454
vt 0.86241268 0.43806708
vt 0.86526800 4.7294802e-2
vt 0.86526800 1.5412623e-2
vt 0.89134259 0.14433671
vt 0.89134259 0.41432491
vt 0.89570700 4.7294802e-2
vt 0.89570700 1.5412623e-2
vt 0.91508476 0.17326663
vt 0.91508476 0.38539499
vt 0.91934132 0.53329339
vt 0.91934132 0.49283870
vt 0.91934132 0.49285992
vt 0.91934132 0.53331461
vt 0.92614600 1.5412623e-2
vt 0.92614600 4.7294802e-2
vt 0.93272678 0.20627253
vt 0.93272678 0.35238909
vt 0.94359069 0.24208602
vt 0.94359069 0.31657560
vt 0.94725898 0.27933081
vt 0.95658500 4.7294802e-2
vt 0.95658500 1.5412623e-2
vt 0.97882013 0.53329339
vt 0.97882013 0.49283870
vt 0.97882013 0.49285992
vt 0.97882013 0.53331461
vt 0.98702400 4.7294802e-2
vt 0.98702400 1.5412623e-2
vn 0.70539816 0.70881128 -1.1312242e-16
vn 0.69184413 0.70881128 0.13761635
vn 0.65170292 0.70881128 0.26994419
vn 0.58651714 0.70881128 0.39189822
vn 0.49879182 0.70881128 0.49879182
vn 0.39189822 0.70881128 0.58651714
vn 0.26994419 0.70881128 0.65170292
vn 0.13761635 0.70881128 0.69184413
vn 0.0000000e+0 0.70881128 0.70539816
vn -0.13761635 0.70881128 0.69184413
vn -0.26994419 0.70881128 0.65170292
vn -0.39189822 0.70881128 0.58651714
vn -0.49879182 0.70881128 0.49879182
vn -0.58651714 0.70881128 0.39189822
vn -0.65170292 0.70881128 0.26994419
vn -0.69184413 0.70881128 0.13761635
vn -0.70539816 0.70881128 -9.8367326e-18
vn -0.69184413 0.70881128 -0.13761635
vn -0.65170292 0.70881128 -0.26994419
vn -0.58651714 0.70881128 -0.39189822
vn -0.49879182 0.70881128 -0.49879182
vn -0.39189822 0.70881128 -0.58651714
vn -0.26994419 0.70881128 -0.65170292
vn -0.13761635 0.70881128 -0.69184413
vn -2.0657138e-16 0.70881128 -0.70539816
vn 0.13761635 0.70881128 -0.69184413
vn 0.26994419 0.70881128 -0.65170292
vn 0.39189822 0.70881128 -0.58651714
vn 0.49879182 0.70881128 -0.49879182
vn 0.58651714 0.70881128 -0.39189822
vn 0.65170292 0.70881128 -0.26994419
vn 0.69184413 0.70881128 -0.13761635
vn 0.89356081 -0.44894218 -1.4329746e-16
vn 0.87639129 -0.44894218 0.17432507
vn 0.82554254 -0.44894218 0.34195092
vn 0.74296866 -0.44894218 0.49643579
vn 0.63184291 -0.44894218 0.63184291
vn 0.49643579 -0.44894218 0.74296866
vn 0.34195092 -0.44894218 0.82554254
vn 0.17432507 -0.44894218 0.87639129
vn 0.0000000e+0 -0.44894218 0.89356081
vn -0.17432507 -0.44894218 0.87639129
vn -0.34195092 -0.44894218 0.82554254
vn -0.49643579 -0.44894218 0.74296866
vn -0.63184291 -0.44894218 0.63184291
vn -0.74296866 -0.44894218 0.49643579
vn -0.82554254 -0.44894218 0.34195092
vn -0.87639129 -0.44894218 0.17432507
vn -0.89356081 -0.44894218 -1.2460649e-17
vn -0.87639129 -0.44894218 -0.17432507
vn -0.82554254 -0.44894218 -0.34195092
vn -0.74296866 -0.44894218 -0.49643579
vn -0.63184291 -0.44894218 -0.63184291
vn -0.49643579 -0.44894218 -0.74296866
vn -0.34195092 -0.44894218 -0.82554254
vn -0.17432507 -0.44894218 -0.87639129
vn -2.6167362e-16 -0.44894218 -0.89356081
vn 0.17432507 -0.44894218 -0.87639129
vn 0.34195092 -0.44894218 -0.82554254
vn 0.49643579 -0.44894218 -0.74296866
vn 0.63184291 -0.44894218 -0.63184291
vn 0.74296866 -0.44894218 -0.49643579
vn 0.82554254 -0.44894218 -0.34195092
vn 0.87639129 -0.44894218 -0.17432507
vn -0.69184413 0.70881128 -0.13761635
vn -0.70539816 0.70881128 -1.0328569e-16
vn -0.69184413 0.70881128 0.13761635
vn -0.65170292 0.70881128 0.26994419
vn -0.58651714 0.70881128 0.39189822
vn -0.49879182 0.70881128 0.49879182
vn -0.39189822 0.70881128 0.58651714
vn -0.26994419 0.70881128 0.65170292
vn -0.13761635 0.70881128 0.69184413
vn -1.9673465e-17 0.70881128 0.70539816
vn 0.13761635 0.70881128 0.69184413
vn 0.26994419 0.70881128 0.65170292
vn 0.39189822 0.70881128 0.58651714
vn 0.49879182 0.70881128 0.49879182
vn 0.58651714 0.70881128 0.39189822
vn 0.65170292 0.70881128 0.26994419
vn 0.69184413 0.70881128 0.13761635
vn 0.70539816 0.70881128 -1.4755099e-17
vn 0.69184413 0.70881128 -0.13761635
vn 0.65170292 0.70881128 -0.26994419
vn 0.58651714 0.70881128 -0.39189822
vn 0.49879182 0.70881128 -0.49879182
vn 0.39189822 0.70881128 -0.58651714
vn 0.26994419 0.70881128 -0.65170292
vn 0.13761635 0.70881128 -0.69184413
vn 9.8367326e-18 0.70881128 -0.70539816
vn -0.13761635 0.70881128 -0.69184413
vn -0.26994419 0.70881128 -0.65170292
vn -0.39189822 0.70881128 -0.58651714
vn -0.49879182 0.70881128 -0.49879182
vn -0.58651714 0.70881128 -0.39189822
vn -0.65170292 0.70881128 -0.26994419
vn -0.87639129 0.44894218 -0.17432507
vn -0.89356081 0.44894218 -1.3083681e-16
vn -0.87639129 0.44894218 0.17432507
vn -0.82554254 0.44894218 0.34195092
vn -0.74296866 0.44894218 0.49643579
vn -0.63184291 0.44894218 0.63184291
vn -0.49643579 0.44894218 0.74296866
vn -0.34195092 0.44894218 0.82554254
vn -0.17432507 0.44894218 0.87639129
vn -2.4921297e-17 0.44894218 0.89356081
vn 0.17432507 0.44894218 0.87639129
vn 0.34195092 0.44894218 0.82554254
vn 0.49643579 0.44894218 0.74296866
vn 0.63184291 0.44894218 0.63184291
vn 0.74296866 0.44894218 0.49643579
vn 0.82554254 0.44894218 0.34195092
vn 0.87639129 0.44894218 0.17432507
vn 0.89356081 0.44894218 -1.8690973e-17
vn 0.87639129 0.44894218 -0.17432507
vn 0.82554254 0.44894218 -0.34195092
vn 0.74296866 0.44894218 -0.49643579
vn 0.63184291 0.44894218 -0.63184291
vn 0.49643579 0.44894218 -0.74296866
vn 0.34195092 0.44894218 -0.82554254
vn 0.17432507 0.44894218 -0.87639129
vn 1.2460649e-17 0.44894218 -0.89356081
vn -0.17432507 0.44894218 -0.87639129
vn -0.34195092 0.44894218 -0.82554254
vn -0.49643579 0.44894218 -0.74296866
vn -0.63184291 0.44894218 -0.63184291
vn -0.74296866 0.44894218 -0.49643579
vn -0.82554254 0.44894218 -0.34195092
g circular-lamp_circular-lamp_auv
usemtl circular-lamp_auv
s 1
f 1/1/1 33/2/33 64/11/64 32/10/32
f 1/133/1 66/114/66 65/113/65 2/131/2
f 2/255/2 34/256/34 33/262/33 1/261/1
f 2/131/2 65/113/65 96/108/96 3/125/3
f 3/249/3 35/248/35 34/256/34 2/255/2
f 3/125/3 96/108/96 95/104/95 4/123/4
f 4/240/4 36/241/36 35/248/35 3/249/3
f 4/123/4 95/104/95 94/96/94 5/110/5
f 5/236/5 37/237/37 36/241/36 4/240/4
f 5/110/5 94/96/94 93/83/93 6/98/6
f 6/229/6 38/228/38 37/237/37 5/236/5
f 6/98/6 93/83/93 92/77/92 7/81/7
f 7/225/7 39/224/39 38/228/38 6/229/6
f 7/81/7 92/77/92 91/69/91 8/75/8
f 8/217/8 40/216/40 39/224/39 7/225/7
f 8/75/8 91/69/91 90/64/90 9/63/9
f 9/212/9 41/213/41 40/216/40 8/217/8
f 9/63/9 90/64/90 89/55/89 10/51/10
f 10/204/10 42/205/42 41/213/41 9/212/9
f 10/51/10 89/55/89 88/49/88 11/45/11
f 11/201/11 43/200/43 42/205/42 10/204/10
f 11/45/11 88/49/88 87/43/87 12/33/12
f 12/195/12 44/194/44 43/200/43 11/201/11
f 12/33/12 87/43/87 86/35/86 13/25/13
f 13/187/13 45/186/45 44/194/44 12/195/12
f 13/25/13 86/35/86 85/31/85 14/14/14
f 14/175/14 46/176/46 45/186/45 13/187/13
f 14/14/14 85/31/85 84/27/84 15/12/15
f 15/160/15 47/161/47 46/176/46 14/175/14
f 15/12/15 84/27/84 83/24/83 16/8/16
f 16/157/16 48/156/48 47/161/47 15/160/15
f 16/8/16 83/24/83 82/18/82 17/7/17
f 17/148/17 49/149/49 48/156/48 16/157/16
f 17/7/17 82/18/82 81/23/81 18/9/18
f 18/145/18 50/144/50 49/149/49 17/148/17
f 18/9/18 81/23/81 80/28/80 19/13/19
f 19/136/19 51/137/51 50/144/50 18/145/18
f 19/13/19 80/28/80 79/32/79 20/15/20
f 20/129/20 52/130/52 51/137/51 19/136/19
f 20/15/20 79/32/79 78/36/78 21/26/21
f 21/116/21 53/115/53 52/130/52 20/129/20
f 21/26/21 78/36/78 77/44/77 22/34/22
f 22/103/22 54/102/54 53/115/53 21/116/21
f 22/34/22 77/44/77 76/50/76 23/46/23
f 23/85/23 55/86/55 54/102/54 22/103/22
f 23/46/23 76/50/76 75/56/75 24/52/24
f 24/79/24 56/80/56 55/86/55 23/85/23
f 24/52/24 75/56/75 74/65/74 25/66/25
f 25/68/25 57/67/57 56/80/56 24/79/24
f 25/66/25 74/65/74 73/70/73 26/76/26
f 26/62/26 58/61/58 57/67/57 25/68/25
f 26/76/26 73/70/73 72/78/72 27/82/27
f 27/53/27 59/54/59 58/61/58 26/62/26
f 27/82/27 72/78/72 71/84/71 28/99/28
f 28/47/28 60/48/60 59/54/59 27/53/27
f 28/99/28 71/84/71 70/97/70 29/111/29
f 29/38/29 61/37/61 60/48/60 28/47/28
f 29/111/29 70/97/70 69/105/69 30/124/30
f 30/30/30 62/29/62 61/37/61 29/38/29
f 30/124/30 69/105/69 68/109/68 31/126/31
f 31/16/31 63/17/63 62/29/62 30/30/30
f 31/126/31 68/109/68 67/112/67 32/132/32
f 32/10/32 64/11/64 63/17/63 31/16/31
f 32/132/32 67/112/67 66/114/66 1/133/1
f 34/169/34 35/171/35 36/179/36 37/184/37 38/192/38 39/202/39 40/206/40 41/214/41 42/218/42 43/226/43 44/234/44 45/238/45 46/242/46 47/250/47 48/252/48 49/254/49 50/253/50 51/251/51 52/243/52 53/239/53 54/235/54 55/227/55 56/219/56 57/215/57 58/207/58 59/203/59 60/193/60 61/185/61 62/180/62 63/172/63 64/170/64 33/168/33
f 65/20/65 97/19/97 128/40/128 96/41/96
f 66/3/66 98/4/98 97/19/97 65/20/65
f 67/244/67 99/245/99 98/258/98 66/257/66
f 68/230/68 100/233/100 99/245/99 67/244/67
f 69/220/69 101/221/101 100/233/100 68/230/68
f 70/208/70 102/209/102 101/221/101 69/220/69
f 71/197/71 103/198/103 102/209/102 70/208/70
f 72/189/72 104/188/104 103/198/103 71/197/71
f 73/163/73 105/162/105 104/188/104 72/189/72
f 74/150/74 106/151/106 105/162/105 73/163/73
f 75/141/75 107/140/107 106/151/106 74/150/74
f 76/121/76 108/120/108 107/140/107 75/141/75
f 77/91/77 109/92/109 108/120/108 76/121/76
f 78/71/78 110/73/110 109/92/109 77/91/77
f 79/59/79 111/60/111 110/73/110 78/71/78
f 80/39/80 112/42/112 111/60/111 79/59/79
f 81/21/81 113/22/113 112/42/112 80/39/80
f 82/5/82 114/6/114 113/22/113 81/21/81
f 83/247/83 115/246/115 114/259/114 82/260/82
f 84/231/84 116/232/116 115/246/115 83/247/83
f 85/222/85 117/223/117 116/232/116 84/231/84
f 86/210/86 118/211/118 117/223/117 85/222/85
f 87/196/87 119/199/119 118/211/118 86/210/86
f 88/190/88 120/191/120 119/199/119 87/196/87
f 89/164/89 121/165/121 120/191/120 88/190/88
f 90/152/90 122/153/122 121/165/121 89/164/89
f 91/138/91 123/139/123 122/153/122 90/152/90
f 92/119/92 124/122/124 123/139/123 91/138/91
f 93/90/93 125/93/125 124/122/124 92/119/92
f 94/72/94 126/74/126 125/93/125 93/90/93
f 95/57/95 127/58/127 126/74/126 94/72/94
f 96/41/96 128/40/128 127/58/127 95/57/95
f 98/183/98 99/182/99 100/178/100 101/174/101 102/166/102 103/159/103 104/154/104 105/146/105 106/142/106 107/134/107 108/127/108 109/118/109 110/107/110 111/100/111 112/95/112 113/88/113 114/87/114 115/89/115 116/94/116 117/101/117 118/106/118 119/117/119 120/128/120 121/135/121 122/143/122 123/147/123 124/155/124 125/158/125 126/167/126 127/173/127 128/177/128 97/181/97
