# Blender v2.80 (sub 74) OBJ File: 'parametric.blend'
# www.blender.org
g short.001_Cube.003
v -0.366667 -0.300000 -0.366667
v -0.366667 0.300000 -0.366667
v 0.366667 -0.300000 0.366667
v 0.366667 0.300000 0.366667
v -0.366667 0.300000 0.366667
v -0.366667 -0.300000 0.366667
v 0.366667 0.300000 -0.366667
v 0.366667 -0.300000 -0.366667
v 0.469792 -0.300000 -0.200521
v 0.469792 0.300000 -0.200521
v 0.504167 -0.300000 -0.000000
v 0.504167 0.300000 -0.000000
v 0.469792 -0.300000 0.200521
v 0.469792 0.300000 0.200521
v -0.200521 -0.300000 0.469792
v 0.000000 -0.300000 0.504167
v 0.200521 -0.300000 0.469792
v -0.200521 0.300000 0.469792
v -0.000000 0.300000 0.504167
v 0.200521 0.300000 0.469792
v -0.469792 0.300000 -0.200521
v -0.469792 -0.300000 -0.200521
v -0.504167 0.300000 0.000000
v -0.504167 -0.300000 0.000000
v -0.469792 0.300000 0.200521
v -0.469791 -0.300000 0.200521
v -0.200521 0.300000 -0.469792
v -0.000000 0.300000 -0.504167
v 0.200521 0.300000 -0.469792
v -0.200521 -0.300000 -0.469792
v 0.000000 -0.300000 -0.504167
v 0.200521 -0.300000 -0.469792
vt 0.925349 0.957061
vt 0.909760 0.951554
vt 0.897868 0.941013
vt 0.891890 0.926290
vt 0.891890 0.909757
vt 0.897396 0.894168
vt 0.907937 0.882277
vt 0.922661 0.876298
vt 0.939194 0.876298
vt 0.954782 0.881805
vt 0.966674 0.892346
vt 0.972652 0.907069
vt 0.972652 0.923602
vt 0.967146 0.939191
vt 0.956605 0.951082
vt 0.941881 0.957061
vt 0.891487 0.813507
vt 0.891487 0.796974
vt 0.897466 0.782250
vt 0.909357 0.771709
vt 0.924946 0.766203
vt 0.941478 0.766203
vt 0.956202 0.772181
vt 0.966743 0.784073
vt 0.972249 0.799662
vt 0.972249 0.816194
vt 0.966271 0.830918
vt 0.954379 0.841459
vt 0.938791 0.846965
vt 0.922258 0.846965
vt 0.907535 0.840987
vt 0.896994 0.829095
vt 0.069385 0.922887
vt 0.069385 0.971645
vt 0.052852 0.971645
vt 0.052852 0.922887
vt 0.036319 0.971645
vt 0.036319 0.922887
vt 0.085276 0.922887
vt 0.085276 0.971645
vt 0.020428 0.971645
vt 0.020429 0.922887
vt 0.230861 0.922887
vt 0.247394 0.922887
vt 0.247394 0.971645
vt 0.230861 0.971645
vt 0.263926 0.922887
vt 0.263926 0.971645
vt 0.279817 0.922887
vt 0.279817 0.971645
vt 0.214970 0.922887
vt 0.214970 0.971645
vt 0.166014 0.971645
vt 0.166014 0.922887
vt 0.182547 0.922887
vt 0.182546 0.971645
vt 0.199079 0.922887
vt 0.199079 0.971645
vt 0.150123 0.971645
vt 0.150123 0.922887
vt 0.134232 0.971645
vt 0.117699 0.971645
vt 0.117699 0.922887
vt 0.134232 0.922887
vt 0.101167 0.971645
vt 0.101167 0.922887
vn -0.0000 1.0000 -0.0000
vn 0.0000 -1.0000 0.0000
vn 0.9350 0.0000 -0.3547
vn 1.0000 0.0000 0.0000
vn 0.9350 0.0000 0.3547
vn 0.7071 0.0000 -0.7071
vn 0.7071 0.0000 0.7071
vn -0.3547 -0.0000 0.9350
vn 0.0000 -0.0000 1.0000
vn 0.3547 0.0000 0.9350
vn -0.7071 -0.0000 0.7071
vn -0.9350 0.0000 -0.3547
vn -1.0000 -0.0000 0.0000
vn -0.9350 -0.0000 0.3547
vn -0.7071 -0.0000 -0.7071
vn -0.3547 -0.0000 -0.9350
vn -0.0000 -0.0000 -1.0000
vn 0.3547 0.0000 -0.9350
s off
f 12/1/1 10/2/1 7/3/1 29/4/1 28/5/1 27/6/1 2/7/1 21/8/1 23/9/1 25/10/1 5/11/1 18/12/1 19/13/1 20/14/1 4/15/1 14/16/1
f 11/17/2 13/18/2 3/19/2 17/20/2 16/21/2 15/22/2 6/23/2 26/24/2 24/25/2 22/26/2 1/27/2 30/28/2 31/29/2 32/30/2 8/31/2 9/32/2
s 1
f 9/33/3 10/34/3 12/35/4 11/36/4
f 11/36/4 12/35/4 14/37/5 13/38/5
f 8/39/6 7/40/6 10/34/3 9/33/3
f 13/38/5 14/37/5 4/41/7 3/42/7
f 15/43/8 16/44/9 19/45/9 18/46/8
f 16/44/9 17/47/10 20/48/10 19/45/9
f 17/47/10 3/49/7 4/50/7 20/48/10
f 6/51/11 15/43/8 18/46/8 5/52/11
f 21/53/12 22/54/12 24/55/13 23/56/13
f 23/56/13 24/55/13 26/57/14 25/58/14
f 2/59/15 1/60/15 22/54/12 21/53/12
f 25/58/14 26/57/14 6/51/11 5/52/11
f 27/61/16 28/62/17 31/63/17 30/64/16
f 28/62/17 29/65/18 32/66/18 31/63/17
f 29/65/18 7/40/6 8/39/6 32/66/18
f 2/59/15 27/61/16 30/64/16 1/60/15
