# Blender v2.80 (sub 39) OBJ File: 'industrial_set.blend'
# www.blender.org
g hydrant_lod3
v 0.419781 6.159500 0.656322
v 0.559038 7.072917 0.559039
v 0.619488 6.641952 0.570007
v 0.520428 0.508157 0.520429
v 0.707030 0.001811 0.707031
v 0.707030 0.485732 0.707031
v 0.437168 3.321798 0.437169
v 1.527146 5.847073 0.608381
v 1.677414 6.426975 0.514094
v 0.520428 0.508157 0.520429
v 0.419781 6.159500 0.656322
v 1.527146 5.847073 0.608381
v 1.527146 5.847073 0.608381
v 1.677414 6.426975 0.514094
v 0.707030 0.485732 0.707031
v 0.707030 0.001811 0.707031
v 0.000000 7.072917 0.790600
v -0.419781 6.159500 0.656322
v -0.559038 7.072917 0.559039
v 0.000000 3.321798 0.640060
v -0.619488 6.641952 0.570007
v 0.000000 0.508157 0.761960
v -0.520428 0.508157 0.520429
v -0.707030 0.001811 0.707031
v 0.000000 0.001811 1.032500
v -0.707030 0.485732 0.707031
v -0.437168 3.321798 0.437169
v -1.527146 5.847073 0.608381
v -1.677414 6.426975 0.514094
v 0.000000 0.485732 1.032500
v 0.000000 0.508157 0.761960
v -0.520428 0.508157 0.520429
v -0.419781 6.159500 0.656322
v -1.527146 5.847073 0.608381
v -1.527146 5.847073 0.608381
v -1.677414 6.426975 0.514094
v 0.000000 0.485732 1.032500
v -0.707030 0.485732 0.707031
v 0.000000 0.001811 1.032500
v -0.707030 0.001811 0.707031
v 0.721688 5.577763 0.000000
v 0.419781 6.159500 -0.656322
v 0.785669 6.993829 0.000000
v 0.559038 7.072917 -0.559039
v 0.619488 6.641952 -0.570007
v 1.736020 6.686624 0.000000
v 0.520428 0.508157 -0.520429
v 0.707030 0.001811 -0.707031
v 1.032500 0.001811 0.000000
v 0.707030 0.485732 -0.707031
v 1.032500 0.485732 0.000000
v 0.437168 3.321798 -0.437169
v 1.527146 5.847073 -0.608381
v 1.677414 6.426975 -0.514094
v 1.410696 5.397680 0.000000
v 1.618708 6.027970 0.000000
v 0.640059 3.321798 0.000000
v 0.761960 0.508157 0.000000
v 0.520428 0.508157 -0.520429
v 0.761960 0.508157 0.000000
v 0.721688 5.577763 0.000000
v 0.419781 6.159500 -0.656322
v 1.527146 5.847073 -0.608381
v 1.527146 5.847073 -0.608381
v 1.410696 5.397680 0.000000
v 1.677414 6.426975 -0.514094
v 0.707030 0.485732 -0.707031
v 0.707030 0.001811 -0.707031
v 1.032500 0.001811 0.000000
v 1.032500 0.485732 0.000000
v 1.736020 6.686624 0.000000
v 0.000000 7.072917 -0.790600
v -0.721688 5.577763 0.000000
v -0.419781 6.159500 -0.656322
v -0.785669 6.993829 0.000000
v -0.559038 7.072917 -0.559039
v 0.000000 3.321798 -0.640060
v -0.619488 6.641952 -0.570007
v -1.736020 6.686624 0.000000
v 0.000000 0.508157 -0.761960
v -0.520428 0.508157 -0.520429
v 0.000000 7.527085 0.000000
v -0.707030 0.001811 -0.707031
v 0.000000 0.001811 -1.032500
v -1.032500 0.001811 0.000000
v -0.707030 0.485732 -0.707031
v -1.032500 0.485732 0.000000
v -0.437168 3.321798 -0.437169
v -1.527146 5.847073 -0.608381
v -1.677414 6.426975 -0.514094
v -1.410696 5.397680 0.000000
v -1.618708 6.027970 0.000000
v -0.640059 3.321798 0.000000
v 0.000000 0.001811 0.000000
v -0.761960 0.508157 0.000000
v 0.000000 0.485732 -1.032500
v 0.000000 0.508157 -0.761960
v -0.520428 0.508157 -0.520429
v -0.761960 0.508157 0.000000
v -0.721688 5.577763 0.000000
v -0.419781 6.159500 -0.656322
v -1.527146 5.847073 -0.608381
v -1.527146 5.847073 -0.608381
v -1.410696 5.397680 0.000000
v -1.677414 6.426975 -0.514094
v 0.000000 0.485732 -1.032500
v -0.707030 0.485732 -0.707031
v 0.000000 0.001811 -1.032500
v -0.707030 0.001811 -0.707031
v -1.032500 0.001811 0.000000
v -1.032500 0.485732 0.000000
v -1.736020 6.686624 0.000000
vt 0.119514 0.975263
vt 0.067263 0.864946
vt 0.127469 0.869904
vt 0.199744 0.140740
vt 0.137199 0.356357
vt 0.169158 0.140333
vt 0.838050 0.144221
vt 0.872082 0.160702
vt 0.842225 0.165717
vt 0.191228 0.975807
vt 0.245682 0.867559
vt 0.258600 0.962145
vt 0.555747 0.088924
vt 0.536586 0.062656
vt 0.568996 0.039428
vt 0.375095 0.164163
vt 0.417352 0.125431
vt 0.410607 0.194635
vt 0.336757 0.134226
vt 0.380770 0.126286
vt 0.603229 0.020354
vt 0.616211 0.047720
vt 0.585221 0.065568
vt 0.585892 0.269509
vt 0.604967 0.314084
vt 0.570015 0.296036
vt 0.406286 0.380189
vt 0.369463 0.426217
vt 0.369703 0.379999
vt 0.522459 0.687878
vt 0.675786 0.599354
vt 0.629963 0.770368
vt 0.346453 0.531334
vt 0.271442 0.581504
vt 0.306614 0.520642
vt 0.249467 0.359010
vt 0.230417 0.141808
vt 0.260992 0.143580
vt 0.371586 0.769841
vt 0.303559 0.766956
vt 0.373134 0.733282
vt 0.539186 0.206441
vt 0.510144 0.215698
vt 0.499651 0.178659
vt 0.655828 0.199256
vt 0.621927 0.274112
vt 0.565595 0.234883
vt 0.271442 0.389485
vt 0.346453 0.439655
vt 0.306614 0.450347
vt 0.844288 0.024921
vt 0.868204 0.050313
vt 0.838881 0.045393
vt 0.138577 0.139706
vt 0.081209 0.356055
vt 0.406046 0.544582
vt 0.369703 0.590990
vt 0.369463 0.544772
vt 0.510118 0.118897
vt 0.538943 0.128749
vt 0.529754 0.164970
vt 0.621475 0.166786
vt 0.544096 0.167195
vt 0.565993 0.099473
vt 0.593036 0.076518
vt 0.650890 0.049494
vt 0.119514 0.975263
vt 0.067263 0.864946
vt 0.052492 0.962339
vt 0.199744 0.140740
vt 0.169158 0.140333
vt 0.137199 0.356357
vt 0.838050 0.144221
vt 0.191228 0.975807
vt 0.555747 0.088924
vt 0.568996 0.039428
vt 0.536586 0.062656
vt 0.375095 0.164163
vt 0.410607 0.194635
vt 0.336757 0.134226
vt 0.380770 0.126286
vt 0.603229 0.020354
vt 0.585221 0.065568
vt 0.616211 0.047720
vt 0.585892 0.269509
vt 0.570015 0.296036
vt 0.604967 0.314084
vt 0.369463 0.426217
vt 0.522459 0.687878
vt 0.499195 0.599354
vt 0.271442 0.581504
vt 0.346453 0.531334
vt 0.306614 0.520642
vt 0.230417 0.141808
vt 0.193477 0.357360
vt 0.371586 0.769841
vt 0.373134 0.733282
vt 0.303559 0.766956
vt 0.539186 0.206441
vt 0.499651 0.178659
vt 0.510144 0.215698
vt 0.655828 0.199256
vt 0.565595 0.234883
vt 0.621927 0.274112
vt 0.346453 0.439655
vt 0.328748 0.396962
vt 0.844288 0.024921
vt 0.838881 0.045393
vt 0.138577 0.139706
vt 0.081209 0.356055
vt 0.369703 0.590990
vt 0.406046 0.544582
vt 0.369463 0.544772
vt 0.510118 0.118897
vt 0.529754 0.164970
vt 0.538943 0.128749
vt 0.621475 0.166786
vt 0.565993 0.099473
vt 0.544096 0.167195
vt 0.650890 0.049494
vt 0.593036 0.076518
vt 0.119514 0.975263
vt 0.052492 0.962339
vt 0.199744 0.140740
vt 0.137199 0.356357
vt 0.838050 0.144221
vt 0.842225 0.165717
vt 0.245682 0.867559
vt 0.191228 0.975807
vt 0.258600 0.962145
vt 0.555747 0.088924
vt 0.536586 0.062656
vt 0.375095 0.164163
vt 0.410607 0.194635
vt 0.417352 0.125431
vt 0.380770 0.126286
vt 0.585221 0.065568
vt 0.585892 0.269509
vt 0.570015 0.296036
vt 0.369463 0.426217
vt 0.406286 0.380189
vt 0.369703 0.379999
vt 0.522459 0.687878
vt 0.499195 0.599354
vt 0.346453 0.531334
vt 0.306614 0.520642
vt 0.249467 0.359010
vt 0.230417 0.141808
vt 0.193477 0.357360
vt 0.373134 0.733282
vt 0.539186 0.206441
vt 0.499651 0.178659
vt 0.510144 0.215698
vt 0.565595 0.234883
vt 0.271442 0.389485
vt 0.346453 0.439655
vt 0.328748 0.396962
vt 0.838881 0.045393
vt 0.406046 0.544582
vt 0.369463 0.544772
vt 0.510118 0.118897
vt 0.529754 0.164970
vt 0.538943 0.128749
vt 0.565993 0.099473
vt 0.544096 0.167195
vt 0.593036 0.076518
vt 0.119514 0.975263
vt 0.127469 0.869904
vt 0.199744 0.140740
vt 0.137199 0.356357
vt 0.838050 0.144221
vt 0.191228 0.975807
vt 0.555747 0.088924
vt 0.536586 0.062656
vt 0.375095 0.164163
vt 0.410607 0.194635
vt 0.380770 0.126286
vt 0.585221 0.065568
vt 0.585892 0.269509
vt 0.570015 0.296036
vt 0.369463 0.426217
vt 0.522459 0.687878
vt 0.629963 0.770368
vt 0.346453 0.531334
vt 0.306614 0.520642
vt 0.230417 0.141808
vt 0.260992 0.143580
vt 0.373134 0.733282
vt 0.539186 0.206441
vt 0.510144 0.215698
vt 0.499651 0.178659
vt 0.565595 0.234883
vt 0.346453 0.439655
vt 0.306614 0.450347
vt 0.838881 0.045393
vt 0.406046 0.544582
vt 0.369463 0.544772
vt 0.510118 0.118897
vt 0.538943 0.128749
vt 0.529754 0.164970
vt 0.544096 0.167195
vt 0.565993 0.099473
vt 0.593036 0.076518
vt 0.187353 0.870818
vt 0.406046 0.426407
vt 0.300275 0.610361
vt 0.193477 0.357360
vt 0.406286 0.590800
vt 0.127469 0.869904
vt 0.187353 0.870818
vt 0.406046 0.426407
vt 0.300275 0.610361
vt 0.306614 0.450347
vt 0.406286 0.590800
vt 0.127469 0.869904
vt 0.187353 0.870818
vt 0.406046 0.426407
vt 0.306614 0.450347
vt 0.187353 0.870818
vt 0.406046 0.426407
vt 0.193477 0.357360
vn 0.7065 0.0418 0.7065
vn 1.0000 0.0036 0.0000
vn 0.7111 -0.0052 0.7031
vn 0.3261 0.0164 0.9452
vn 0.9995 -0.0320 0.0000
vn 0.6184 0.5160 0.5927
vn 0.0000 1.0000 0.0000
vn 0.0000 0.4645 0.8856
vn 0.0000 -0.0140 0.9999
vn 0.0000 0.0433 0.9991
vn -0.1968 -0.7732 0.6028
vn -0.1932 -0.7767 0.5995
vn -0.2459 -0.9693 0.0000
vn 0.3964 0.2730 0.8765
vn 0.5845 0.8114 0.0000
vn -0.2528 -0.9675 0.0000
vn 0.1604 0.5785 0.7997
vn 0.2538 0.9673 0.0000
vn 0.0000 0.0000 1.0000
vn 0.7071 0.0000 0.7071
vn 0.0000 -1.0000 0.0000
vn 0.0600 0.9964 0.0600
vn 0.0825 0.9966 0.0000
vn 0.0598 0.9964 0.0598
vn 0.9680 -0.2509 0.0000
vn 0.9845 -0.1753 0.0000
vn 0.9773 -0.2061 0.0483
vn 0.0000 0.9966 0.0825
vn 1.0000 0.0000 0.0000
vn 0.0820 0.1392 0.9868
vn 0.9597 -0.2737 0.0631
vn 0.9496 -0.3134 0.0000
vn -0.7065 0.0418 0.7065
vn -1.0000 0.0036 0.0000
vn -0.9991 0.0433 0.0000
vn -0.3261 0.0164 0.9452
vn -0.9995 -0.0320 0.0000
vn -0.7111 -0.0052 0.7031
vn -0.6184 0.5160 0.5927
vn 0.1968 -0.7732 0.6028
vn 0.2459 -0.9693 0.0000
vn 0.1932 -0.7767 0.5995
vn -0.3964 0.2730 0.8765
vn -0.5845 0.8114 0.0000
vn 0.2528 -0.9675 0.0000
vn -0.1604 0.5785 0.7997
vn -0.2538 0.9673 0.0000
vn -0.7071 0.0000 0.7071
vn -0.0825 0.9966 0.0000
vn -0.0600 0.9964 0.0600
vn -0.0598 0.9964 0.0598
vn -0.9680 -0.2509 0.0000
vn -0.9773 -0.2061 0.0483
vn -0.9845 -0.1753 0.0000
vn 0.0000 0.9966 0.0826
vn -1.0000 0.0000 0.0000
vn -0.0820 0.1392 0.9868
vn -0.9597 -0.2737 0.0631
vn -0.9496 -0.3134 0.0000
vn 0.7065 0.0418 -0.7065
vn 0.9991 0.0433 0.0000
vn 0.3261 0.0164 -0.9452
vn 0.7111 -0.0052 -0.7031
vn 0.6184 0.5160 -0.5927
vn 0.0000 0.4645 -0.8856
vn 0.0000 -0.0140 -0.9999
vn 0.0000 0.0433 -0.9991
vn -0.1968 -0.7732 -0.6028
vn -0.1932 -0.7767 -0.5995
vn 0.3964 0.2730 -0.8765
vn 0.1604 0.5785 -0.7997
vn 0.7071 0.0000 -0.7071
vn 0.0000 0.0000 -1.0000
vn 0.0600 0.9964 -0.0600
vn 0.0598 0.9964 -0.0598
vn 0.9773 -0.2061 -0.0483
vn 0.0000 0.9966 -0.0825
vn 0.0000 0.9966 -0.0826
vn 0.0820 0.1392 -0.9868
vn 0.9597 -0.2737 -0.0631
vn -0.7065 0.0418 -0.7065
vn -0.7111 -0.0052 -0.7031
vn -0.3261 0.0164 -0.9452
vn -0.6184 0.5160 -0.5927
vn 0.1968 -0.7732 -0.6028
vn 0.1932 -0.7767 -0.5995
vn -0.3964 0.2730 -0.8765
vn -0.1604 0.5785 -0.7997
vn -0.7071 0.0000 -0.7071
vn -0.0600 0.9964 -0.0600
vn -0.0598 0.9964 -0.0598
vn -0.9773 -0.2061 -0.0483
vn -0.0820 0.1392 -0.9868
vn -0.9597 -0.2737 -0.0631
vn 0.0826 0.9966 0.0000
vn -0.0826 0.9966 0.0000
s 1
f 10/1/1 57/2/2 7/3/3
f 11/4/4 7/5/3 61/6/5
f 2/7/6 82/8/7 17/9/8
f 10/10/1 20/11/9 31/12/10
f 12/13/11 1/14/12 41/15/13
f 3/16/14 17/17/8 11/18/4
f 43/19/15 2/20/6 3/16/14
f 41/21/13 65/22/16 12/23/11
f 14/24/17 71/25/18 3/26/14
f 25/27/19 6/28/20 30/29/19
f 5/30/21 94/31/21 49/32/21
f 15/33/22 58/34/23 4/35/24
f 2/20/6 17/17/8 3/16/14
f 20/36/9 11/37/4 17/38/8
f 71/39/18 43/40/15 3/41/14
f 14/42/17 3/43/14 11/44/4
f 56/45/25 46/46/26 9/47/27
f 22/48/28 15/49/22 4/50/24
f 43/51/15 82/52/7 2/53/6
f 61/54/5 7/5/3 57/55/2
f 16/56/20 70/57/29 6/58/20
f 11/59/4 13/60/30 14/61/17
f 56/62/25 9/63/27 8/64/31
f 56/62/25 8/65/31 55/66/32
f 32/67/33 93/68/34 99/69/35
f 33/70/36 100/71/37 27/72/38
f 19/73/39 17/9/8 82/8/7
f 20/11/9 32/74/33 31/12/10
f 34/75/40 73/76/41 18/77/42
f 21/78/43 33/79/36 17/17/8
f 75/80/44 21/78/43 19/81/39
f 73/82/41 34/83/40 104/84/45
f 36/85/46 21/86/43 112/87/47
f 26/88/48 25/27/19 30/29/19
f 24/89/21 94/31/21 39/90/21
f 95/91/49 38/92/50 23/93/51
f 19/81/39 21/78/43 17/17/8
f 20/36/9 33/94/36 27/95/38
f 112/96/47 21/97/43 75/98/44
f 36/99/46 33/100/36 21/101/43
f 92/102/52 29/103/53 79/104/54
f 22/48/28 38/105/50 37/106/55
f 75/107/44 19/108/39 82/52/7
f 100/109/37 93/110/34 27/72/38
f 111/111/56 40/112/48 26/113/48
f 33/114/36 36/115/46 35/116/57
f 92/117/52 28/118/58 29/119/53
f 92/117/52 91/120/59 28/121/58
f 59/122/60 57/2/2 60/123/61
f 62/124/62 61/6/5 52/125/63
f 44/126/64 72/127/65 82/8/7
f 77/128/66 59/129/60 97/130/67
f 63/131/68 41/15/13 42/132/69
f 45/133/70 62/134/62 72/135/65
f 43/19/15 45/133/70 44/136/64
f 41/21/13 63/137/68 65/22/16
f 66/138/71 45/139/70 71/25/18
f 50/140/72 84/141/73 96/142/73
f 48/143/21 94/31/21 108/144/21
f 58/34/23 67/145/74 47/146/75
f 44/136/64 45/133/70 72/135/65
f 77/147/66 62/148/62 52/149/63
f 71/39/18 45/150/70 43/40/15
f 66/151/71 62/152/62 45/153/70
f 56/45/25 54/154/76 46/46/26
f 80/155/77 67/156/74 106/157/78
f 43/51/15 44/158/64 82/52/7
f 61/54/5 57/55/2 52/125/63
f 70/57/29 68/159/72 50/160/72
f 62/161/62 66/162/71 64/163/79
f 56/62/25 53/164/80 54/165/76
f 56/62/25 55/66/32 53/166/80
f 98/167/81 93/68/34 88/168/82
f 101/169/83 88/170/82 100/71/37
f 76/171/84 82/8/7 72/127/65
f 98/172/81 77/128/66 97/130/67
f 102/173/85 74/174/86 73/76/41
f 78/175/87 72/135/65 101/176/83
f 75/80/44 76/177/84 78/175/87
f 73/82/41 104/84/45 102/178/85
f 105/179/88 112/87/47 78/180/87
f 84/141/73 86/181/89 96/142/73
f 83/182/21 94/31/21 85/183/21
f 107/184/90 95/91/49 81/185/91
f 76/177/84 72/135/65 78/175/87
f 77/147/66 101/186/83 72/187/65
f 112/96/47 75/98/44 78/188/87
f 105/189/88 78/190/87 101/191/83
f 92/102/52 79/104/54 90/192/92
f 80/155/77 107/193/90 81/194/91
f 75/107/44 82/52/7 76/195/84
f 100/109/37 88/170/82 93/110/34
f 109/196/89 111/111/56 86/197/89
f 101/198/83 103/199/93 105/200/88
f 92/117/52 90/201/92 89/202/94
f 92/117/52 89/203/94 91/120/59
f 10/1/1 60/123/61 57/2/2
f 10/10/1 7/204/3 20/11/9
f 25/27/19 16/205/20 6/28/20
f 5/30/21 39/90/21 94/31/21
f 15/33/22 51/206/95 58/34/23
f 20/36/9 7/207/3 11/37/4
f 22/48/28 37/106/55 15/49/22
f 16/56/20 69/208/29 70/57/29
f 32/67/33 27/209/38 93/68/34
f 20/11/9 27/210/38 32/74/33
f 26/88/48 40/211/48 25/27/19
f 24/89/21 85/183/21 94/31/21
f 95/91/49 87/212/96 38/92/50
f 20/36/9 17/38/8 33/94/36
f 22/48/28 23/213/51 38/105/50
f 111/111/56 110/214/56 40/112/48
f 59/122/60 52/215/63 57/2/2
f 77/128/66 52/216/63 59/129/60
f 50/140/72 68/217/72 84/141/73
f 48/143/21 49/32/21 94/31/21
f 58/34/23 51/206/95 67/145/74
f 77/147/66 72/187/65 62/148/62
f 80/155/77 47/218/75 67/156/74
f 70/57/29 69/208/29 68/159/72
f 98/167/81 99/69/35 93/68/34
f 98/172/81 88/219/82 77/128/66
f 84/141/73 109/220/89 86/181/89
f 83/182/21 108/144/21 94/31/21
f 107/184/90 87/212/96 95/91/49
f 77/147/66 88/221/82 101/186/83
f 80/155/77 106/157/78 107/193/90
f 109/196/89 110/214/56 111/111/56
