# Blender v2.80 (sub 41) OBJ File: 'stone_steps.blend'
# www.blender.org
g stone_step-lod2_mesh.002
v 4.000000 0.200000 -1.000000
v 4.000000 -0.200000 1.000000
v -4.100000 -0.200000 1.000000
v -4.100000 0.200000 1.000000
v -4.100000 -0.200000 -1.000000
v 4.000000 -0.200000 -1.000000
v 4.000000 0.200000 1.000000
v -4.100000 0.200000 -1.000000
vt 0.851977 0.970209
vt 0.798798 0.990475
vt 0.780312 0.571200
vt 0.398274 0.992774
vt 0.438555 0.025807
vt 0.776771 0.990902
vt 0.019317 0.984177
vt 0.359037 0.021646
vt 0.367600 0.548378
vt 0.989522 0.263316
vt 0.932666 0.474053
vt 0.948558 0.297521
vt 0.975687 0.487530
vt 0.996406 0.005365
vt 0.931458 0.230994
vt 0.939471 0.003785
vt 0.980168 0.248394
vt 0.856232 0.403426
vt 0.910191 0.452345
vt 0.863181 0.935535
vt 0.756837 0.502994
vt 0.015007 0.009615
vt 0.911591 0.977690
vt 0.827757 0.009618
vn -0.5773 -0.5773 -0.5773
vn -0.5773 0.5773 -0.5773
vn 0.5773 0.5773 -0.5773
vn -0.5773 0.5773 0.5773
vn 0.5773 0.5773 0.5773
vn 0.5773 -0.5773 0.5773
vn -0.5773 -0.5773 0.5773
vn 0.5773 -0.5773 -0.5773
s 1
f 5/1/1 8/2/2 1/3/3
f 4/4/4 7/5/5 8/6/2
f 5/7/1 2/8/6 3/9/7
f 2/10/6 1/11/3 7/12/5
f 6/13/8 1/11/3 2/10/6
f 4/14/4 5/15/1 3/16/7
f 5/15/1 4/14/4 8/17/2
f 4/18/4 3/19/7 7/20/5
f 1/21/3 8/6/2 7/5/5
f 6/22/8 2/8/6 5/7/1
f 3/19/7 2/23/6 7/20/5
f 6/24/8 5/1/1 1/3/3
