# Blender v2.80 (sub 74) OBJ File: 'parametric.blend'
# www.blender.org
g mesh
v 0.333334 -2.000000 -0.333333
v -0.333333 -2.000000 -0.333333
v 0.333334 -2.000000 0.333333
v -0.333333 -2.000000 0.333333
v 0.333333 2.000000 -0.333333
v -0.333334 2.000000 -0.333333
v 0.333333 2.000000 0.333333
v -0.333334 2.000000 0.333333
v -0.427084 2.000000 -0.182292
v -0.458334 2.000000 0.000000
v -0.427084 2.000000 0.182292
v 0.182292 -2.000000 -0.427083
v 0.000000 -2.000000 -0.458333
v -0.182291 -2.000000 -0.427083
v -0.182292 2.000000 0.427083
v -0.000000 2.000000 0.458333
v 0.182291 2.000000 0.427083
v 0.182292 -2.000000 0.427083
v 0.000000 -2.000000 0.458333
v -0.182291 -2.000000 0.427083
v 0.182291 2.000000 -0.427083
v -0.000000 2.000000 -0.458333
v -0.182292 2.000000 -0.427083
v 0.427084 -2.000000 -0.182292
v 0.458334 -2.000000 -0.000000
v 0.427084 -2.000000 0.182292
v 0.427083 2.000000 0.182292
v 0.458333 2.000000 -0.000000
v 0.427083 2.000000 -0.182292
v -0.427083 -2.000000 0.182292
v -0.458333 -2.000000 0.000000
v -0.427083 -2.000000 -0.182292
vt 0.827535 0.204084
vt 0.842565 0.204084
vt 0.856736 0.209090
vt 0.867547 0.218673
vt 0.872982 0.232058
vt 0.872982 0.247088
vt 0.867976 0.261259
vt 0.858393 0.272070
vt 0.845008 0.277505
vt 0.829978 0.277505
vt 0.815807 0.272499
vt 0.804996 0.262916
vt 0.799561 0.249531
vt 0.799561 0.234501
vt 0.804567 0.220330
vt 0.814150 0.209519
vt 0.804567 0.351388
vt 0.799561 0.337217
vt 0.799561 0.322187
vt 0.804996 0.308802
vt 0.815807 0.299219
vt 0.829978 0.294213
vt 0.845008 0.294213
vt 0.858393 0.299648
vt 0.867976 0.310459
vt 0.872982 0.324630
vt 0.872982 0.339660
vt 0.867547 0.353045
vt 0.856736 0.362628
vt 0.842565 0.367634
vt 0.827535 0.367634
vt 0.814150 0.362199
vt 0.584765 0.672760
vt 0.584765 0.997814
vt 0.569736 0.997814
vt 0.569736 0.672760
vt 0.554706 0.997814
vt 0.554706 0.672760
vt 0.599212 0.997814
vt 0.599212 0.672760
vt 0.540260 0.997814
vt 0.540260 0.672760
vt 0.731562 0.672761
vt 0.746592 0.672761
vt 0.746592 0.997814
vt 0.731562 0.997814
vt 0.776068 0.672761
vt 0.776068 0.997814
vt 0.761622 0.997814
vt 0.761622 0.672760
vt 0.717116 0.997814
vt 0.717116 0.672760
vt 0.672610 0.997814
vt 0.672610 0.672760
vt 0.687640 0.672760
vt 0.687640 0.997814
vt 0.702670 0.672760
vt 0.702670 0.997814
vt 0.658164 0.672760
vt 0.658164 0.997814
vt 0.643717 0.997814
vt 0.628688 0.997814
vt 0.628688 0.672760
vt 0.643718 0.672760
vt 0.613658 0.672760
vt 0.613658 0.997814
vn -0.0000 1.0000 0.0000
vn 0.0000 -1.0000 -0.0000
vn 0.9350 0.0000 -0.3547
vn 1.0000 0.0000 -0.0000
vn 0.9350 0.0000 0.3547
vn 0.7071 0.0000 -0.7071
vn 0.7071 0.0000 0.7071
vn -0.3547 -0.0000 0.9350
vn 0.0000 0.0000 1.0000
vn 0.3547 0.0000 0.9350
vn -0.7071 -0.0000 0.7071
vn -0.9350 -0.0000 -0.3547
vn -1.0000 -0.0000 0.0000
vn -0.9350 -0.0000 0.3547
vn -0.7071 -0.0000 -0.7071
vn -0.3547 -0.0000 -0.9350
vn -0.0000 -0.0000 -1.0000
vn 0.3547 0.0000 -0.9350
s off
f 9/1/1 10/2/1 11/3/1 8/4/1 15/5/1 16/6/1 17/7/1 7/8/1 27/9/1 28/10/1 29/11/1 5/12/1 21/13/1 22/14/1 23/15/1 6/16/1
f 24/17/2 25/18/2 26/19/2 3/20/2 18/21/2 19/22/2 20/23/2 4/24/2 30/25/2 31/26/2 32/27/2 2/28/2 14/29/2 13/30/2 12/31/2 1/32/2
s 1
f 24/33/3 29/34/3 28/35/4 25/36/4
f 25/36/4 28/35/4 27/37/5 26/38/5
f 5/39/6 29/34/3 24/33/3 1/40/6
f 27/37/5 7/41/7 3/42/7 26/38/5
f 20/43/8 19/44/9 16/45/9 15/46/8
f 3/47/7 7/48/7 17/49/10 18/50/10
f 19/44/9 18/50/10 17/49/10 16/45/9
f 15/46/8 8/51/11 4/52/11 20/43/8
f 9/53/12 32/54/12 31/55/13 10/56/13
f 10/56/13 31/55/13 30/57/14 11/58/14
f 2/59/15 32/54/12 9/53/12 6/60/15
f 30/57/14 4/52/11 8/51/11 11/58/14
f 23/61/16 22/62/17 13/63/17 14/64/16
f 5/39/6 1/40/6 12/65/18 21/66/18
f 22/62/17 21/66/18 12/65/18 13/63/17
f 14/64/16 2/59/15 6/60/15 23/61/16
g collider
v 0.333334 -2.000000 -0.333333
v -0.333333 -2.000000 -0.333333
v 0.333334 -2.000000 0.333333
v -0.333333 -2.000000 0.333333
v 0.333333 2.000000 -0.333333
v -0.333334 2.000000 -0.333333
v 0.333333 2.000000 0.333333
v -0.333334 2.000000 0.333333
v -0.458334 2.000000 0.000000
v 0.000000 -2.000000 -0.458333
v -0.000000 2.000000 0.458333
v 0.000000 -2.000000 0.458333
v -0.000000 2.000000 -0.458333
v 0.458334 -2.000000 -0.000000
v 0.458333 2.000000 -0.000000
v -0.458333 -2.000000 0.000000
vt 0.814150 0.209519
vt 0.842565 0.204084
vt 0.867547 0.218673
vt 0.872982 0.247088
vt 0.858393 0.272070
vt 0.829978 0.277505
vt 0.804996 0.262916
vt 0.799561 0.234501
vt 0.814150 0.362199
vt 0.799561 0.337217
vt 0.804996 0.308802
vt 0.829978 0.294213
vt 0.858393 0.299648
vt 0.872982 0.324630
vt 0.867547 0.353045
vt 0.842565 0.367634
vt 0.717116 0.997814
vt 0.717116 0.672760
vt 0.746592 0.672761
vt 0.746592 0.997814
vt 0.599212 0.997814
vt 0.569736 0.997814
vt 0.569736 0.672760
vt 0.599212 0.672760
vt 0.776068 0.672761
vt 0.776068 0.997814
vt 0.687640 0.997814
vt 0.687640 0.672760
vt 0.628688 0.672760
vt 0.658164 0.672760
vt 0.658164 0.997814
vt 0.628688 0.997814
vt 0.540260 0.997814
vt 0.540260 0.672760
vn -0.0000 1.0000 0.0000
vn 0.0000 -1.0000 0.0000
vn -0.7071 -0.0000 0.7071
vn 0.0000 0.0000 1.0000
vn 0.7071 0.0000 -0.7071
vn 1.0000 0.0000 -0.0000
vn 0.7071 0.0000 0.7071
vn -1.0000 -0.0000 0.0000
vn -0.0000 0.0000 -1.0000
vn -0.7071 -0.0000 -0.7071
s off
f 38/67/19 41/68/19 40/69/19 43/70/19 39/71/19 47/72/19 37/73/19 45/74/19
f 33/75/20 46/76/20 35/77/20 44/78/20 36/79/20 48/80/20 34/81/20 42/82/20
s 1
f 40/83/21 36/84/21 44/85/22 43/86/22
f 37/87/23 47/88/24 46/89/24 33/90/23
f 44/85/22 35/91/25 39/92/25 43/86/22
f 36/84/21 40/83/21 41/93/26 48/94/26
f 42/95/27 34/96/28 38/97/28 45/98/27
f 34/96/28 48/94/26 41/93/26 38/97/28
f 45/98/27 37/87/23 33/90/23 42/95/27
f 39/99/25 35/100/25 46/89/24 47/88/24
