# Blender v2.80 (sub 74) OBJ File: 'parametric.blend'
# www.blender.org
g short.003_Cube.008
v -0.366667 -0.300000 -0.366667
v -0.366667 0.300000 -0.366667
v 0.366667 -0.300000 0.366667
v 0.366667 0.300000 0.366667
v -0.366667 0.300000 0.366667
v -0.366667 -0.300000 0.366667
v 0.366667 0.300000 -0.366667
v 0.366667 -0.300000 -0.366667
v 0.504167 -0.300000 -0.000000
v 0.504167 0.300000 -0.000000
v 0.000000 -0.300000 0.504167
v 0.000000 0.300000 0.504167
v -0.504167 0.300000 0.000000
v -0.504167 -0.300000 0.000000
v 0.000000 0.300000 -0.504167
v 0.000000 -0.300000 -0.504167
vt 0.925349 0.957061
vt 0.897868 0.941013
vt 0.891890 0.909757
vt 0.907937 0.882277
vt 0.939194 0.876298
vt 0.966674 0.892346
vt 0.972652 0.923602
vt 0.956605 0.951082
vt 0.891487 0.813507
vt 0.897466 0.782250
vt 0.924946 0.766203
vt 0.956202 0.772181
vt 0.972249 0.799662
vt 0.966271 0.830918
vt 0.938791 0.846965
vt 0.907535 0.840987
vt 0.052852 0.971645
vt 0.020428 0.971645
vt 0.020429 0.922887
vt 0.052852 0.922887
vt 0.214970 0.922887
vt 0.247394 0.922887
vt 0.247394 0.971645
vt 0.214970 0.971645
vt 0.279817 0.922887
vt 0.279817 0.971645
vt 0.150123 0.971645
vt 0.150123 0.922887
vt 0.182547 0.922887
vt 0.182546 0.971645
vt 0.117699 0.971645
vt 0.117699 0.922887
vt 0.085276 0.971645
vt 0.085276 0.922887
vn -0.0000 1.0000 0.0000
vn 0.0000 -1.0000 0.0000
vn 1.0000 0.0000 0.0000
vn 0.7071 0.0000 0.7071
vn -0.7071 0.0000 0.7071
vn 0.0000 0.0000 1.0000
vn -0.7071 0.0000 -0.7071
vn -1.0000 0.0000 0.0000
vn -0.0000 0.0000 -1.0000
vn 0.7071 0.0000 -0.7071
s off
f 10/1/1 7/2/1 15/3/1 2/4/1 13/5/1 5/6/1 12/7/1 4/8/1
f 9/9/2 3/10/2 11/11/2 6/12/2 14/13/2 1/14/2 16/15/2 8/16/2
s 1
f 10/17/3 4/18/4 3/19/4 9/20/3
f 6/21/5 11/22/6 12/23/6 5/24/5
f 11/22/6 3/25/4 4/26/4 12/23/6
f 2/27/7 1/28/7 14/29/8 13/30/8
f 14/29/8 6/21/5 5/24/5 13/30/8
f 2/27/7 15/31/9 16/32/9 1/28/7
f 15/31/9 7/33/10 8/34/10 16/32/9
f 8/34/10 7/33/10 10/17/3 9/20/3
