# Blender v2.80 (sub 74) OBJ File: 'parametric.blend'
# www.blender.org
g mesh
v 0.333347 -4.000000 -0.333346
v -0.333345 -4.000000 -0.333346
v 0.333347 -4.000000 0.333346
v -0.333345 -4.000000 0.333346
v 0.333346 4.000000 -0.333346
v -0.333347 4.000000 -0.333346
v 0.333346 4.000000 0.333346
v -0.333347 4.000000 0.333346
v -0.427094 4.000000 -0.182300
v -0.458340 4.000000 0.000000
v -0.427094 4.000000 0.182301
v 0.182301 -4.000000 -0.427093
v 0.000001 -4.000000 -0.458340
v -0.182300 -4.000000 -0.427093
v -0.182301 4.000000 0.427093
v -0.000001 4.000000 0.458340
v 0.182300 4.000000 0.427093
v 0.182301 -4.000000 0.427093
v 0.000001 -4.000000 0.458340
v -0.182300 -4.000000 0.427093
v 0.182300 4.000000 -0.427093
v -0.000001 4.000000 -0.458340
v -0.182301 4.000000 -0.427093
v 0.427094 -4.000000 -0.182301
v 0.458341 -4.000000 -0.000000
v 0.427094 -4.000000 0.182300
v 0.427092 4.000000 0.182300
v 0.458339 4.000000 -0.000000
v 0.427092 4.000000 -0.182301
v -0.427092 -4.000000 0.182301
v -0.458339 -4.000000 0.000000
v -0.427092 -4.000000 -0.182300
vt 0.802641 0.156324
vt 0.802641 0.141293
vt 0.807646 0.127121
vt 0.817229 0.116310
vt 0.830614 0.110875
vt 0.845644 0.110875
vt 0.859816 0.115880
vt 0.870627 0.125463
vt 0.876063 0.138848
vt 0.876063 0.153878
vt 0.871057 0.168050
vt 0.861475 0.178861
vt 0.848090 0.184296
vt 0.833059 0.184296
vt 0.818887 0.179291
vt 0.808076 0.169709
vt 0.807646 0.071761
vt 0.802641 0.057589
vt 0.802641 0.042558
vt 0.808076 0.029173
vt 0.818887 0.019591
vt 0.833059 0.014586
vt 0.848090 0.014586
vt 0.861475 0.020021
vt 0.871057 0.030832
vt 0.876063 0.045004
vt 0.876063 0.060035
vt 0.870627 0.073420
vt 0.859816 0.083002
vt 0.845644 0.088007
vt 0.830614 0.088007
vt 0.817229 0.082572
vt 0.732180 0.661805
vt 0.732181 0.011699
vt 0.747211 0.011699
vt 0.747211 0.661805
vt 0.762241 0.011699
vt 0.762241 0.661805
vt 0.717734 0.011699
vt 0.717734 0.661805
vt 0.776688 0.011699
vt 0.776688 0.661805
vt 0.585380 0.661805
vt 0.570350 0.661805
vt 0.570350 0.011699
vt 0.585381 0.011699
vt 0.540873 0.661805
vt 0.540873 0.011699
vt 0.555320 0.011699
vt 0.555320 0.661805
vt 0.599827 0.011699
vt 0.599827 0.661805
vt 0.644334 0.011699
vt 0.644334 0.661805
vt 0.629304 0.661805
vt 0.629304 0.011699
vt 0.614273 0.661805
vt 0.614273 0.011699
vt 0.658780 0.661805
vt 0.658781 0.011699
vt 0.673227 0.011699
vt 0.688258 0.011699
vt 0.688257 0.661805
vt 0.673227 0.661805
vt 0.703288 0.661805
vt 0.703288 0.011699
vn 0.0000 1.0000 -0.0000
vn 0.0000 -1.0000 0.0000
vn 0.9350 0.0000 -0.3547
vn 1.0000 0.0000 0.0000
vn 0.9350 0.0000 0.3547
vn 0.7071 0.0000 -0.7071
vn 0.7071 0.0000 0.7071
vn -0.3547 -0.0000 0.9350
vn 0.0000 0.0000 1.0000
vn 0.3547 0.0000 0.9350
vn -0.7071 -0.0000 0.7071
vn -0.9350 -0.0000 -0.3547
vn -1.0000 -0.0000 -0.0000
vn -0.9350 -0.0000 0.3547
vn -0.7071 -0.0000 -0.7071
vn -0.3547 -0.0000 -0.9350
vn -0.0000 -0.0000 -1.0000
vn 0.3547 0.0000 -0.9350
s off
f 15/1/1 16/2/1 17/3/1 7/4/1 27/5/1 28/6/1 29/7/1 5/8/1 21/9/1 22/10/1 23/11/1 6/12/1 9/13/1 10/14/1 11/15/1 8/16/1
f 24/17/2 25/18/2 26/19/2 3/20/2 18/21/2 19/22/2 20/23/2 4/24/2 30/25/2 31/26/2 32/27/2 2/28/2 14/29/2 13/30/2 12/31/2 1/32/2
s 1
f 24/33/3 29/34/3 28/35/4 25/36/4
f 25/36/4 28/35/4 27/37/5 26/38/5
f 5/39/6 29/34/3 24/33/3 1/40/6
f 27/37/5 7/41/7 3/42/7 26/38/5
f 20/43/8 19/44/9 16/45/9 15/46/8
f 3/47/7 7/48/7 17/49/10 18/50/10
f 19/44/9 18/50/10 17/49/10 16/45/9
f 15/46/8 8/51/11 4/52/11 20/43/8
f 9/53/12 32/54/12 31/55/13 10/56/13
f 10/56/13 31/55/13 30/57/14 11/58/14
f 2/59/15 32/54/12 9/53/12 6/60/15
f 30/57/14 4/52/11 8/51/11 11/58/14
f 23/61/16 22/62/17 13/63/17 14/64/16
f 5/39/6 1/40/6 12/65/18 21/66/18
f 22/62/17 21/66/18 12/65/18 13/63/17
f 14/64/16 2/59/15 6/60/15 23/61/16
g collider
v 0.333347 -4.000000 -0.333346
v -0.333345 -4.000000 -0.333346
v 0.333347 -4.000000 0.333346
v -0.333345 -4.000000 0.333346
v 0.333346 4.000000 -0.333346
v -0.333347 4.000000 -0.333346
v 0.333346 4.000000 0.333346
v -0.333347 4.000000 0.333346
v -0.458340 4.000000 0.000000
v 0.000001 -4.000000 -0.458340
v -0.000001 4.000000 0.458340
v 0.000001 -4.000000 0.458340
v -0.000001 4.000000 -0.458340
v 0.458341 -4.000000 -0.000000
v 0.458339 4.000000 -0.000000
v -0.458339 -4.000000 0.000000
vt 0.808076 0.169709
vt 0.802641 0.141293
vt 0.817229 0.116310
vt 0.845644 0.110875
vt 0.870627 0.125463
vt 0.876063 0.153878
vt 0.861475 0.178861
vt 0.833059 0.184296
vt 0.817229 0.082572
vt 0.802641 0.057589
vt 0.808076 0.029173
vt 0.833059 0.014586
vt 0.861475 0.020021
vt 0.876063 0.045004
vt 0.870627 0.073420
vt 0.845644 0.088007
vt 0.599827 0.011699
vt 0.599827 0.661805
vt 0.570350 0.661805
vt 0.570350 0.011699
vt 0.717734 0.011699
vt 0.747211 0.011699
vt 0.747211 0.661805
vt 0.717734 0.661805
vt 0.540873 0.661805
vt 0.540873 0.011699
vt 0.629304 0.011699
vt 0.629304 0.661805
vt 0.688257 0.661805
vt 0.658780 0.661805
vt 0.658781 0.011699
vt 0.688258 0.011699
vt 0.776688 0.011699
vt 0.776688 0.661805
vn 0.0000 1.0000 0.0000
vn 0.0000 -1.0000 0.0000
vn -0.7071 -0.0000 0.7071
vn -0.0000 -0.0000 1.0000
vn 0.7071 0.0000 -0.7071
vn 1.0000 0.0000 -0.0000
vn 0.7071 0.0000 0.7071
vn -1.0000 -0.0000 0.0000
vn -0.0000 -0.0000 -1.0000
vn -0.7071 -0.0000 -0.7071
s off
f 40/67/19 43/68/19 39/69/19 47/70/19 37/71/19 45/72/19 38/73/19 41/74/19
f 33/75/20 46/76/20 35/77/20 44/78/20 36/79/20 48/80/20 34/81/20 42/82/20
s 1
f 40/83/21 36/84/21 44/85/22 43/86/22
f 37/87/23 47/88/24 46/89/24 33/90/23
f 44/85/22 35/91/25 39/92/25 43/86/22
f 36/84/21 40/83/21 41/93/26 48/94/26
f 42/95/27 34/96/28 38/97/28 45/98/27
f 34/96/28 48/94/26 41/93/26 38/97/28
f 45/98/27 37/87/23 33/90/23 42/95/27
f 39/99/25 35/100/25 46/89/24 47/88/24
