# Blender v2.80 (sub 60) OBJ File: 'industrial_set.blend'
# www.blender.org
g valve.lod.001_main.006
v 0.213714 0.035188 0.448626
v 0.029789 0.211962 0.450771
v 0.000000 0.249201 0.449645
v -0.029789 0.211962 0.450771
v -0.211962 0.029789 0.450771
v -0.249201 -0.000000 0.449645
v 0.251495 -0.000000 0.449571
v 0.249201 -0.000000 0.506791
v -0.000000 0.249201 0.506791
v -0.249201 -0.000000 0.506791
v 0.029789 0.211962 0.505096
v -0.029789 0.211962 0.505096
v -0.211962 0.029788 0.505096
v -0.152003 0.062961 0.273895
v -0.062961 0.152003 0.273896
v -0.063951 0.154393 0.000000
v -0.154393 0.063951 0.000000
v -0.152003 -0.062961 0.273895
v 0.062961 0.152003 0.273896
v 0.063951 0.154393 0.000000
v 0.152003 0.062961 0.273895
v 0.154393 0.063951 0.000000
v 0.152003 -0.062961 0.273895
v 0.154393 -0.063951 -0.000000
v -0.154393 -0.063951 -0.000000
v 0.012678 0.047314 0.449208
v 0.047314 0.012678 0.449208
v -0.012678 0.047314 0.449208
v -0.047314 0.012678 0.449208
v -0.047314 -0.012678 0.449208
v 0.000000 0.030662 0.488277
v 0.030662 -0.000000 0.488277
v -0.030662 -0.000000 0.488277
v -0.211962 -0.029789 0.450771
v 0.211962 0.029789 0.505096
v 0.047314 -0.012678 0.449208
v 0.213714 -0.035189 0.448626
v 0.211962 -0.029789 0.505096
v 0.029460 -0.211962 0.451176
v 0.029460 -0.211962 0.504691
v -0.029460 -0.211962 0.504691
v -0.029460 -0.211962 0.451176
v -0.211962 -0.029789 0.505096
v -0.000000 -0.249201 0.449644
v 0.000000 -0.249201 0.506791
v -0.062961 -0.152003 0.273895
v 0.062961 -0.152003 0.273895
v -0.063951 -0.154393 -0.000000
v 0.063951 -0.154393 -0.000000
v -0.000000 -0.030662 0.488277
v -0.012678 -0.047314 0.449208
v 0.012678 -0.047314 0.449208
v 0.034636 0.034636 0.449208
v -0.034636 -0.034637 0.449208
v -0.130927 -0.053089 0.296142
v -0.130927 0.053089 0.296142
v -0.053089 0.130927 0.296142
v 0.053089 0.130927 0.296142
v 0.130927 0.053089 0.296142
v -0.053089 -0.130927 0.296142
v 0.053089 -0.130927 0.296142
v 0.130927 -0.053089 0.296142
v 0.017852 0.066624 0.296166
v -0.017852 0.066624 0.296166
v -0.066624 0.017852 0.296166
v -0.066624 -0.017852 0.296166
v 0.066624 0.017852 0.296166
v 0.066624 -0.017852 0.296166
v 0.017852 -0.066624 0.296166
v -0.017852 -0.066624 0.296166
v 0.057005 0.013140 0.484687
v 0.013140 0.057004 0.484687
v -0.013140 0.057004 0.484687
v -0.057005 0.013140 0.484687
v -0.057005 -0.013140 0.484687
v 0.057005 -0.013140 0.484687
v -0.012988 -0.057005 0.484522
v 0.012988 -0.057005 0.484522
v 0.155343 0.155876 0.454028
v 0.177037 0.176385 0.452721
v -0.155550 0.155550 0.454022
v -0.176717 0.176717 0.453097
v 0.176717 0.176717 0.503338
v -0.176717 0.176717 0.503338
v -0.155550 0.155550 0.502413
v 0.155550 0.155550 0.502413
v -0.196075 -0.018794 0.453756
v 0.196075 0.018794 0.500235
v 0.196214 -0.019204 0.453558
v 0.155343 -0.155877 0.454028
v 0.155550 -0.155550 0.502413
v -0.155550 -0.155550 0.454022
v -0.155550 -0.155551 0.502413
v 0.177037 -0.176385 0.452721
v -0.176717 -0.176717 0.453097
v 0.176717 -0.176717 0.503338
v -0.176717 -0.176717 0.503338
v 0.018794 0.196075 0.453756
v 0.018794 0.196075 0.500235
v -0.018794 0.196075 0.500235
v -0.018794 0.196075 0.453756
v -0.196075 0.018793 0.453756
v -0.196075 0.018793 0.500235
v 0.196214 0.019203 0.453558
v -0.017469 -0.196076 0.498609
v -0.017469 -0.196075 0.455382
v 0.017469 -0.196076 0.498609
v 0.017469 -0.196075 0.455382
v -0.196075 -0.018794 0.500235
v 0.196075 -0.018794 0.500235
v -0.000000 0.022689 0.501987
v 0.022689 -0.000000 0.501987
v -0.022689 -0.000000 0.501987
v 0.000000 -0.022689 0.501987
v -0.000000 -0.000000 0.508391
vt 0.987061 0.232178
vt 0.975830 0.241943
vt 0.936768 0.238037
vt 0.936768 0.228760
vt 0.533936 0.630127
vt 0.547607 0.630127
vt 0.549072 0.683350
vt 0.531006 0.683350
vt 0.894287 0.239990
vt 0.883545 0.229248
vt 0.534912 0.576904
vt 0.552979 0.577881
vt 0.885498 0.282959
vt 0.900146 0.273193
vt 0.938721 0.276611
vt 0.938232 0.286865
vt 0.883545 0.212158
vt 0.937256 0.214600
vt 0.886475 0.948975
vt 0.886475 0.954346
vt 0.880615 0.953369
vt 0.986572 0.216064
vt 0.989014 0.358643
vt 0.991455 0.376709
vt 0.937744 0.370850
vt 0.938721 0.357666
vt 0.884033 0.300537
vt 0.937256 0.299561
vt 0.509521 0.629150
vt 0.525146 0.629639
vt 0.523682 0.663818
vt 0.505615 0.670654
vt 0.884521 0.371826
vt 0.885010 0.353760
vt 0.975830 0.189697
vt 0.977783 0.206787
vt 0.937256 0.205322
vt 0.937744 0.190674
vt 0.898193 0.201416
vt 0.898682 0.187256
vt 0.976807 0.261475
vt 0.979736 0.277100
vt 0.939209 0.261963
vt 0.510010 0.592041
vt 0.530029 0.588135
vt 0.517334 0.690186
vt 0.702881 0.750244
vt 0.740967 0.755615
vt 0.741455 0.762939
vt 0.700928 0.764404
vt 0.579834 0.950928
vt 0.581787 0.921143
vt 0.590576 0.918213
vt 0.589600 0.954346
vt 0.588135 0.738525
vt 0.578857 0.735596
vt 0.577881 0.704834
vt 0.586670 0.701904
vt 0.666748 0.956787
vt 0.668213 0.920166
vt 0.578857 0.988037
vt 0.579834 0.956299
vt 0.588135 0.989990
vt 0.590576 0.882080
vt 0.668213 0.882568
vt 0.581787 0.916260
vt 0.581787 0.884521
vt 0.590576 0.846436
vt 0.668213 0.846436
vt 0.664307 0.697998
vt 0.666260 0.735107
vt 0.580322 0.777588
vt 0.590088 0.774170
vt 0.590576 0.810303
vt 0.581787 0.807373
vt 0.578857 0.740479
vt 0.580322 0.772217
vt 0.667236 0.771729
vt 0.668213 0.809326
vt 0.487061 0.681885
vt 0.421631 0.672119
vt 0.423584 0.664307
vt 0.423584 0.656006
vt 0.489502 0.661377
vt 0.487549 0.671143
vt 0.559814 0.596436
vt 0.557373 0.631104
vt 0.535400 0.838623
vt 0.535889 0.818115
vt 0.581787 0.811768
vt 0.581787 0.844971
vt 0.486572 0.574951
vt 0.489014 0.596436
vt 0.422119 0.602783
vt 0.416748 0.586670
vt 0.536865 0.900635
vt 0.535400 0.889893
vt 0.490479 0.617920
vt 0.423096 0.621338
vt 0.423096 0.611572
vt 0.489502 0.606689
vt 0.566162 0.798584
vt 0.565186 0.787354
vt 0.485596 0.692139
vt 0.483643 0.701904
vt 0.416748 0.688232
vt 0.419678 0.680908
vt 0.740479 0.656494
vt 0.739990 0.664795
vt 0.699463 0.665283
vt 0.701416 0.650146
vt 0.697510 0.750244
vt 0.695068 0.763428
vt 0.741943 0.771240
vt 0.701416 0.776611
vt 0.882568 0.971924
vt 0.872803 0.976318
vt 0.868896 0.971924
vt 0.864502 0.967041
vt 0.868408 0.957275
vt 0.746826 0.849365
vt 0.703857 0.844971
vt 0.706787 0.833740
vt 0.746826 0.843506
vt 0.939209 0.347900
vt 0.981201 0.350342
vt 0.901611 0.258545
vt 0.740967 0.672119
vt 0.700439 0.677490
vt 0.703857 0.955811
vt 0.744873 0.949463
vt 0.743408 0.958252
vt 0.709717 0.968994
vt 0.709717 0.916748
vt 0.747803 0.927979
vt 0.743896 0.933838
vt 0.705322 0.928467
vt 0.741943 0.867432
vt 0.746826 0.873291
vt 0.708252 0.882080
vt 0.702393 0.870361
vt 0.560303 0.690674
vt 0.558350 0.673096
vt 0.697998 0.843994
vt 0.704346 0.829834
vt 0.701904 0.857666
vt 0.696045 0.857178
vt 0.702881 0.943115
vt 0.697510 0.942139
vt 0.697998 0.927979
vt 0.877686 0.241455
vt 0.977295 0.333252
vt 0.939697 0.332764
vt 0.703369 0.735107
vt 0.706787 0.739014
vt 0.705811 0.911377
vt 0.896240 0.344482
vt 0.902588 0.330811
vt 0.897705 0.310791
vt 0.937256 0.310303
vt 0.987061 0.303955
vt 0.977783 0.313232
vt 0.703857 0.885010
vt 0.697510 0.872314
vt 0.977783 0.381592
vt 0.937744 0.380615
vt 0.988037 0.288330
vt 0.895752 0.381592
vt 0.878662 0.385010
vt 0.879150 0.271729
vt 0.879639 0.343018
vt 0.877686 0.198975
vt 0.565674 0.929932
vt 0.566162 0.941650
vt 0.535889 0.758545
vt 0.532959 0.748291
vt 0.562744 0.726318
vt 0.562744 0.716553
vt 0.666260 0.993896
vt 0.532959 0.980713
vt 0.533936 0.960693
vt 0.581787 0.879639
vt 0.581787 0.848877
vt 0.744873 0.943115
vt 0.883057 0.936768
vt 0.868408 0.950439
vt 0.864502 0.940674
vt 0.874268 0.932373
vt 0.890381 0.971924
vt 0.903564 0.957275
vt 0.907959 0.967041
vt 0.899658 0.976318
vt 0.745361 0.650146
vt 0.706299 0.639404
vt 0.703857 0.971924
vt 0.698975 0.957275
vt 0.694580 0.664307
vt 0.696533 0.649658
vt 0.741943 0.853760
vt 0.890381 0.936768
vt 0.899658 0.932861
vt 0.903564 0.937256
vt 0.907959 0.942139
vt 0.903564 0.950439
vt 0.697021 0.779053
vt 0.695068 0.679443
vt 0.876221 0.313232
vt 0.740479 0.679932
vt 0.706299 0.690186
vt 0.702881 0.792236
vt 0.706787 0.790283
vt 0.742920 0.779541
vt 0.423584 0.638428
vt 0.423584 0.629639
vt 0.490479 0.628662
vt 0.490479 0.639404
vt 0.702393 0.692627
vt 0.702881 0.635498
vt 0.746338 0.750244
vt 0.886475 0.964111
vt 0.895752 0.954346
vt 0.886475 0.944580
vt 0.876709 0.953369
vt 0.886475 0.959229
vt 0.891846 0.954346
vt 0.566162 0.868896
vt 0.565674 0.859619
vn -0.0002 0.7637 -0.6455
vn -0.1063 -0.4837 -0.8687
vn 0.4382 -0.4382 -0.7848
vn -0.5485 0.5485 -0.6311
vn 0.5412 0.5463 0.6392
vn 0.5554 0.5509 -0.6229
vn 0.0002 0.7611 0.6486
vn 0.4837 0.1063 -0.8687
vn -0.7642 0.0000 -0.6449
vn 0.7543 -0.0000 0.6565
vn 0.7841 -0.0000 -0.6207
vn -0.5085 -0.0900 0.8564
vn -0.4447 0.4509 0.7739
vn 0.5410 -0.5451 0.6405
vn -0.7608 -0.0000 0.6490
vn -0.5464 0.5464 0.6347
vn -0.7026 0.0000 0.7116
vn 0.0000 -0.0000 1.0000
vn 0.0000 0.7026 0.7116
vn -0.5482 -0.5473 -0.6324
vn -0.5462 -0.5452 0.6360
vn 0.5552 -0.5497 -0.6242
vn -0.4259 -0.4393 -0.7910
vn -0.4442 -0.4492 0.7752
vn 0.0877 -0.5009 0.8610
vn 0.1040 -0.4868 -0.8673
vn -0.0002 -0.7613 -0.6484
vn 0.0002 -0.7587 0.6514
vn -0.0875 -0.5006 0.8612
vn 0.4418 -0.4418 0.7808
vn 0.5006 0.0875 0.8612
vn 0.0867 0.5074 -0.8574
vn 0.0717 0.5202 0.8510
vn -0.4264 0.4411 -0.7897
vn -0.4851 0.0787 -0.8709
vn -0.5085 0.0900 0.8564
vn -0.6100 -0.2831 -0.7401
vn -0.6255 0.7247 -0.2891
vn -0.6237 0.1999 0.7557
vn -0.5890 -0.3779 0.7143
vn -0.1666 0.4148 0.8945
vn 0.1666 0.4148 0.8945
vn 0.3581 0.8588 0.3663
vn -0.3581 0.8588 0.3663
vn -0.8588 -0.3581 0.3663
vn -0.4148 -0.1666 0.8945
vn -0.4148 0.1666 0.8945
vn -0.8588 0.3581 0.3663
vn -0.3827 0.9238 0.0094
vn 0.3827 0.9238 0.0094
vn 0.8588 0.3581 0.3663
vn 0.9238 0.3827 0.0094
vn 0.4148 0.1666 0.8945
vn 0.8588 -0.3581 0.3663
vn 0.9238 -0.3827 0.0094
vn -0.9238 0.3827 0.0094
vn -0.9238 -0.3827 0.0094
vn -0.1666 -0.4148 0.8945
vn -0.3581 -0.8588 0.3663
vn 0.3581 -0.8588 0.3663
vn 0.1666 -0.4148 0.8945
vn -0.3827 -0.9238 0.0094
vn 0.3827 -0.9238 0.0094
vn 0.2910 0.4387 0.8502
vn 0.6810 0.7322 0.0107
vn 0.6744 0.6785 -0.2914
vn 0.7486 -0.5836 -0.3146
vn 0.4958 -0.0837 0.8644
vn 0.4432 0.2066 0.8723
vn 0.1634 -0.5061 0.8469
vn 0.4148 -0.1666 0.8945
vn -0.1634 0.5061 0.8469
vn -0.4958 0.0837 0.8644
vn -0.7490 0.5827 -0.3155
vn -0.2910 -0.4387 0.8502
vn -0.6808 -0.7324 0.0112
vn -0.6747 -0.6781 -0.2916
vn -0.4432 -0.2066 0.8723
vn 0.5775 0.7596 -0.2992
vn -0.1983 -0.6148 0.7633
vn 0.3779 -0.5890 0.7143
vn 0.2831 -0.6100 -0.7401
vn 0.6145 0.1986 0.7635
vn 0.5890 -0.3779 0.7143
vn 0.1976 0.6136 0.7645
vn 0.6221 -0.7287 -0.2863
vn 0.6032 0.3230 -0.7293
vn -0.6032 0.3230 -0.7293
vn -0.5738 -0.7637 -0.2959
vn 0.4422 0.4435 0.7796
vn 0.5006 -0.0875 0.8612
vn -0.4851 -0.0787 -0.8709
vn -0.1999 0.6237 0.7557
vn 0.3779 0.5890 0.7143
vn -0.3958 -0.5678 0.7218
vn 0.1985 -0.6232 0.7565
vn -0.3499 -0.5910 -0.7269
vn -0.3499 0.5910 -0.7269
vn -0.6124 -0.2079 0.7627
vn -0.5809 0.4138 0.7009
vn -0.0889 0.5044 -0.8589
vn 0.5809 0.4138 0.7009
vn -0.3958 0.5678 0.7218
vn 0.4837 -0.1063 -0.8687
vn 0.4387 0.4400 -0.7835
vn 0.6100 -0.2831 -0.7401
vn -0.0714 0.5199 0.8513
vn 0.6217 -0.2093 0.7548
vn 0.2831 0.6100 -0.7401
vn 0.3443 -0.0011 0.9388
vn 0.0000 -0.3469 0.9379
vn -0.3443 -0.0011 0.9388
vn 0.0000 0.3440 0.9390
vn 0.7026 -0.0000 0.7116
vn -0.0000 -0.7026 0.7116
s 1
f 3/1/1 4/2/2 81/3/3 82/4/4
f 83/5/5 80/6/6 3/7/1 9/8/7
f 5/9/8 6/10/9 82/4/4 81/3/3
f 8/11/10 7/12/11 80/6/6 83/5/5
f 8/13/10 38/14/12 91/15/13 96/16/14
f 6/10/9 10/17/15 84/18/16 82/4/4
f 113/19/17 115/20/18 111/21/19
f 9/22/7 3/1/1 82/4/4 84/18/16
f 10/23/15 6/24/9 95/25/20 97/26/21
f 7/27/11 8/13/10 96/16/14 94/28/22
f 79/29/23 86/30/24 11/31/25 2/32/26
f 44/33/27 45/34/28 97/26/21 95/25/20
f 4/35/2 12/36/29 85/37/30 81/38/3
f 81/38/3 85/37/30 13/39/31 5/40/8
f 39/41/32 40/42/33 91/15/13 90/43/34
f 1/44/35 35/45/36 86/30/24 79/29/23
f 85/37/30 84/18/16 10/17/15 13/39/31
f 9/8/7 12/46/29 11/31/25
f 101/47/37 28/48/38 73/49/39 100/50/40
f 57/51/41 58/52/42 19/53/43 15/54/44
f 18/55/45 55/56/46 56/57/47 14/58/48
f 16/59/49 15/54/44 19/53/43 20/60/50
f 56/61/47 57/62/41 15/54/44 14/63/48
f 20/60/50 19/53/43 21/64/51 22/65/52
f 58/66/42 59/67/53 21/64/51 19/53/43
f 22/65/52 21/64/51 23/68/54 24/69/55
f 14/58/48 17/70/56 25/71/57 18/55/45
f 60/72/58 46/73/59 47/74/60 61/75/61
f 55/76/46 18/55/45 46/73/59 60/77/58
f 46/73/59 48/78/62 49/79/63 47/74/60
f 63/80/64 53/81/65 27/82/66 36/83/67 68/84/68 67/85/69
f 1/86/35 79/87/23 80/6/6 7/12/11
f 68/88/68 69/89/70 61/90/61 62/91/71
f 64/92/72 65/93/73 29/94/74 28/95/38
f 63/96/64 67/97/69 59/67/53 58/66/42
f 70/98/75 54/99/76 30/100/77 29/94/74 65/93/73 66/101/78
f 60/72/58 61/75/61 69/102/70 70/103/75
f 63/104/64 64/105/72 28/106/38 26/107/79 53/81/65
f 30/108/77 75/109/80 109/110/81 87/111/82
f 4/112/2 101/47/37 100/50/40 12/113/29
f 100/50/40 73/49/39 72/114/83 99/115/84
f 71/116/85 27/117/66 53/118/65 26/119/79 72/120/83
f 52/121/86 108/122/87 106/123/88 51/124/89
f 93/125/90 43/126/91 10/23/15 97/26/21
f 91/15/13 38/14/12 37/127/92 90/43/34
f 75/109/80 74/128/93 103/129/94 109/110/81
f 110/130/95 76/131/96 36/132/67 89/133/97
f 89/134/97 36/135/67 27/136/66 104/137/98
f 77/138/99 51/139/89 106/140/88 105/141/100
f 4/142/2 3/7/1 2/143/26
f 106/123/88 108/122/87 39/144/32 42/145/101
f 39/144/32 108/122/87 107/146/102 40/147/33
f 104/137/98 88/148/103 35/149/36 1/150/35
f 34/151/104 6/10/9 5/9/8
f 34/152/104 43/126/91 93/125/90 92/153/105
f 2/154/26 98/155/106 101/47/37 4/112/2
f 1/150/35 37/156/92 89/134/97 104/137/98
f 93/125/90 41/157/107 42/158/101 92/153/105
f 37/159/92 7/27/11 94/28/22 90/160/34
f 90/160/34 94/28/22 44/161/27 39/162/32
f 105/141/100 106/140/88 42/163/101 41/164/107
f 34/165/104 92/166/105 95/25/20 6/24/9
f 91/15/13 40/42/33 45/167/28 96/16/14
f 42/168/101 39/169/32 44/33/27
f 44/161/27 94/28/22 96/16/14 45/167/28
f 85/37/30 12/36/29 9/22/7 84/18/16
f 86/30/24 35/45/36 8/11/10 83/5/5
f 9/8/7 11/31/25 86/30/24 83/5/5
f 42/168/101 44/33/27 95/25/20 92/166/105
f 41/157/107 93/125/90 97/26/21 45/34/28
f 8/13/10 35/170/36 38/14/12
f 45/34/28 40/171/33 41/157/107
f 10/17/15 43/172/91 13/39/31
f 61/90/61 47/74/60 23/68/54 62/91/71
f 18/55/45 25/71/57 48/78/62 46/73/59
f 63/173/64 58/52/42 57/51/41 64/174/72
f 23/68/54 47/74/60 49/79/63 24/69/55
f 55/76/46 60/77/58 70/175/75 66/176/78
f 56/57/47 55/56/46 66/177/78 65/178/73
f 15/54/44 16/59/49 17/179/56 14/63/48
f 56/61/47 65/180/73 64/181/72 57/62/41
f 21/64/51 59/182/53 62/183/71 23/68/54
f 88/148/103 71/184/85 76/131/96 110/130/95
f 74/185/93 73/186/39 28/187/38 29/188/74
f 76/189/96 78/190/108 52/191/86 36/192/67
f 29/193/74 30/108/77 87/111/82 102/194/109
f 37/195/92 38/196/12 110/130/95 89/133/97
f 87/111/82 109/110/81 43/197/91 34/198/104
f 108/122/87 52/121/86 78/199/108 107/146/102
f 78/199/108 77/138/99 105/141/100 107/146/102
f 75/200/80 30/201/77 54/202/76 51/203/89 77/204/99
f 27/136/66 71/184/85 88/148/103 104/137/98
f 11/205/25 12/113/29 100/50/40 99/115/84
f 13/206/31 43/197/91 109/110/81 103/129/94
f 1/207/35 7/27/11 37/159/92
f 103/129/94 74/128/93 29/208/74 102/209/109
f 2/210/26 11/205/25 99/115/84 98/211/106
f 40/147/33 107/146/102 105/141/100 41/164/107
f 99/115/84 72/114/83 26/212/79 98/211/106
f 35/149/36 88/148/103 110/130/95 38/196/12
f 52/213/86 51/214/89 54/99/76 70/215/75 69/216/70
f 5/217/8 13/206/31 103/129/94 102/209/109
f 102/194/109 87/111/82 34/198/104 5/218/8
f 98/155/106 26/219/79 28/48/38 101/47/37
f 68/84/68 36/83/67 52/213/86 69/216/70
f 71/116/85 32/220/110 76/189/96
f 78/190/108 76/189/96 32/220/110 50/221/111
f 75/200/80 77/204/99 50/221/111 33/222/112
f 77/204/99 78/190/108 50/221/111
f 72/120/83 73/186/39 31/223/113
f 74/185/93 75/200/80 33/222/112
f 73/186/39 74/185/93 33/222/112 31/223/113
f 32/220/110 112/224/114 114/225/115 50/221/111
f 114/225/115 115/20/18 113/19/17
f 112/224/114 115/20/18 114/225/115
f 115/20/18 112/224/114 111/21/19
f 33/222/112 50/221/111 114/225/115 113/19/17
f 113/19/17 111/21/19 31/223/113 33/222/112
f 112/224/114 32/220/110 31/223/113 111/21/19
f 59/182/53 67/226/69 68/227/68 62/183/71
f 32/220/110 71/116/85 72/120/83 31/223/113
f 2/143/26 3/7/1 80/6/6 79/87/23
